<?xml version="1.0" encoding="UTF-8"?>
<svg xmlns="http://www.w3.org/2000/svg" xmlns:xlink="http://www.w3.org/1999/xlink" version="1.2" >
<font id="Grold Regular">
<font-face  font-family="Grold" units-per-em="1000" ascent="750" descent="-250" font-style="normal" font-weight="400" font-stretch="normal" cap-height="579" x-height="424" underline-position="-91" underline-thickness="35" />
<missing-glyph  horiz-adv-x="569" d="" />
<glyph glyph-name="space" unicode="&#x20;" horiz-adv-x="182" d="" />
<glyph glyph-name="exclam" unicode="&#x21;" horiz-adv-x="248" d="M81 161 L165 161 L172 579 L74 579 L81 161 Z M66 59 C66 27 92 0 123 0 C155 0 182 27 182 59 C182 90 155 116 123 116 C92 116 66 90 66 59 L66 59 Z " />
<glyph glyph-name="quotedbl" unicode="&#x22;" horiz-adv-x="396" d="M147 360 L156 488 L156 579 L66 579 L66 489 L75 360 L147 360 Z M321 360 L330 488 L330 579 L240 579 L240 489 L249 360 L321 360 Z " />
<glyph glyph-name="numbersign" unicode="&#x23;" horiz-adv-x="733" d="M332 373 L462 373 L400 198 L269 198 L332 373 Z M600 465 L641 579 L537 579 L496 465 L365 465 L406 579 L302 579 L261 465 L116 465 L116 373 L227 373 L165 198 L66 198 L66 106 L132 106 L94 0 L198 0 L236 106 L367 106 L329 0 L433 0 L471 106 L617 106 L617 198 L505 198 L567 373 L667 373 L667 465 L600 465 Z " />
<glyph glyph-name="dollar" unicode="&#x24;" horiz-adv-x="573" d="M231 -115 L327 -115 L327 -9 C464 4 507 96 507 148 C507 359 177 295 177 426 C177 465 225 497 273 497 C322 497 379 481 414 441 L485 494 C467 520 421 572 327 585 L327 693 L231 693 L231 585 C110 567 80 481 80 433 C80 220 409 263 409 155 C409 140 390 81 296 81 C218 81 161 123 138 154 L66 97 C89 62 138 10 231 -6 L231 -115 Z " />
<glyph glyph-name="percent" unicode="&#x25;" horiz-adv-x="743" d="M167 0 L266 0 L590 579 L491 579 L167 0 Z M189 579 C121 579 66 525 66 457 C66 389 121 334 189 334 C257 334 312 389 312 457 C312 525 257 579 189 579 L189 579 Z M189 411 C164 411 143 431 143 457 C143 481 164 502 189 502 C214 502 235 481 235 457 C235 431 214 411 189 411 L189 411 Z M554 234 C486 234 431 180 431 112 C431 44 486 -11 554 -11 C622 -11 677 44 677 112 C677 180 622 234 554 234 L554 234 Z M554 66 C529 66 508 86 508 112 C508 136 529 157 554 157 C579 157 600 136 600 112 C600 86 579 66 554 66 L554 66 Z " />
<glyph glyph-name="ampersand" unicode="&#x26;" horiz-adv-x="681" d="M671 0 L534 132 C570 179 586 249 587 313 L587 320 L489 320 L489 313 C489 279 486 239 459 206 L292 369 C261 399 233 431 233 461 C233 499 246 533 316 533 C370 533 401 499 401 448 L401 437 L499 437 L499 447 C499 466 494 625 316 625 C140 625 135 501 135 470 C135 446 144 396 183 357 C149 335 66 258 66 162 C66 15 216 -11 274 -11 C343 -11 417 10 466 62 L530 0 L671 0 Z M398 129 C366 97 324 80 274 80 C205 80 164 123 164 172 C164 215 194 256 239 284 L398 129 Z " />
<glyph glyph-name="quotesingle" unicode="&#x27;" horiz-adv-x="222" d="M147 360 L156 488 L156 579 L66 579 L66 489 L75 360 L147 360 Z " />
<glyph glyph-name="parenleft" unicode="&#x28;" horiz-adv-x="304" d="M238 -147 C186 -1 164 133 164 276 C164 426 189 568 237 719 L139 719 C91 569 66 427 66 276 C66 129 90 -4 139 -147 L238 -147 Z " />
<glyph glyph-name="parenright" unicode="&#x29;" horiz-adv-x="304" d="M165 -147 C214 -4 238 129 238 276 C238 427 213 569 165 719 L67 719 C115 568 140 426 140 276 C140 133 118 -1 66 -147 L165 -147 Z " />
<glyph glyph-name="asterisk" unicode="&#x2a;" horiz-adv-x="462" d="M275 579 L187 579 L198 468 L94 514 L66 431 L179 402 L104 315 L169 265 L231 358 L293 265 L358 315 L283 402 L396 431 L368 514 L264 468 L275 579 Z " />
<glyph glyph-name="plus" unicode="&#x2b;" horiz-adv-x="410" d="M349 242 L254 242 L254 344 L156 344 L156 242 L61 242 L61 160 L156 160 L156 58 L254 58 L254 160 L349 160 L349 242 Z " />
<glyph glyph-name="comma" unicode="&#x2c;" horiz-adv-x="311" d="M156 -80 L245 98 L140 98 L66 -80 L156 -80 Z " />
<glyph glyph-name="hyphen" unicode="&#x2d;" horiz-adv-x="411" d="M66 152 L345 152 L345 244 L66 244 L66 152 Z " />
<glyph glyph-name="period" unicode="&#x2e;" horiz-adv-x="208" d="M46 46 C46 15 72 -11 103 -11 C135 -11 162 15 162 46 C162 78 135 105 103 105 C72 105 46 78 46 46 L46 46 Z " />
<glyph glyph-name="slash" unicode="&#x2f;" horiz-adv-x="581" d="M66 -147 L165 -147 L515 719 L416 719 L66 -147 Z " />
<glyph glyph-name="zero" unicode="0" horiz-adv-x="592" d="M296 589 C128 589 56 454 56 289 C56 123 128 -11 296 -11 C464 -11 536 123 536 289 C536 454 464 589 296 589 L296 589 Z M296 497 C415 497 438 384 438 289 C438 194 415 81 296 81 C177 81 154 194 154 289 C154 384 177 497 296 497 L296 497 Z " />
<glyph glyph-name="one" unicode="1" horiz-adv-x="334" d="M168 579 L18 540 L18 442 L170 482 L170 0 L268 0 L268 579 L168 579 Z " />
<glyph glyph-name="two" unicode="2" horiz-adv-x="487" d="M46 397 L144 397 L144 407 C144 455 172 497 226 497 C299 497 317 456 317 410 C317 371 298 296 53 87 L53 0 L421 0 L421 92 L193 92 C267 159 415 292 415 407 C415 436 412 589 224 589 C46 589 46 425 46 406 L46 397 Z " />
<glyph glyph-name="three" unicode="3" horiz-adv-x="491" d="M425 171 C425 171 424 260 342 289 C425 316 425 407 425 407 C425 436 418 589 229 589 C51 589 46 425 46 406 L46 401 L144 401 L144 407 C144 455 180 497 234 497 C303 497 327 456 327 410 C327 332 254 332 237 332 L188 332 L188 246 L237 246 C254 246 327 246 327 168 C327 122 303 81 234 81 C180 81 144 123 144 171 L144 177 L46 177 L46 172 C46 153 51 -11 229 -11 C418 -11 425 142 425 171 L425 171 Z " />
<glyph glyph-name="four" unicode="4" horiz-adv-x="489" d="M463 203 L396 203 L396 579 L268 579 L23 219 L23 111 L298 111 L298 0 L396 0 L396 111 L463 111 L463 203 Z M126 203 L298 456 L298 203 L126 203 Z " />
<glyph glyph-name="five" unicode="5" horiz-adv-x="484" d="M248 279 C332 279 341 209 341 176 C341 119 298 80 241 80 C182 80 158 109 147 145 L46 145 C52 104 72 -11 240 -11 C438 -11 438 157 438 176 C438 358 304 370 262 370 C194 370 171 349 164 345 L164 487 L386 487 L386 579 L67 579 L67 256 L175 243 C187 265 203 279 248 279 L248 279 Z " />
<glyph glyph-name="six" unicode="6" horiz-adv-x="509" d="M367 578 L251 578 C197 490 141 402 87 314 C63 273 46 224 46 182 C46 63 136 -11 254 -11 C371 -11 463 60 463 182 C463 287 398 387 247 387 L367 578 Z M254 81 C191 81 143 124 143 188 C143 248 191 295 254 295 C318 295 366 248 366 188 C366 124 318 81 254 81 L254 81 Z " />
<glyph glyph-name="seven" unicode="7" horiz-adv-x="415" d="M18 579 L18 487 L291 487 L104 0 L209 0 L397 487 L397 579 L18 579 Z " />
<glyph glyph-name="eight" unicode="8" horiz-adv-x="550" d="M275 589 C150 589 82 518 82 429 C82 383 92 334 145 305 C82 287 56 221 56 164 C56 42 155 -11 275 -11 C395 -11 494 42 494 164 C494 221 468 287 405 305 C458 334 468 383 468 429 C468 518 400 589 275 589 L275 589 Z M275 80 C213 80 154 108 154 174 C154 239 213 269 275 269 C337 269 396 239 396 174 C396 108 337 80 275 80 L275 80 Z M275 497 C327 497 370 464 370 421 C370 377 327 343 275 343 C223 343 180 377 180 421 C180 464 223 497 275 497 L275 497 Z " />
<glyph glyph-name="nine" unicode="9" horiz-adv-x="509" d="M142 0 L258 0 C312 88 368 176 422 264 C446 305 463 354 463 396 C463 515 373 589 255 589 C138 589 46 518 46 396 C46 291 111 191 262 191 L142 0 Z M255 497 C318 497 366 454 366 390 C366 330 318 283 255 283 C191 283 143 330 143 390 C143 454 191 497 255 497 L255 497 Z " />
<glyph glyph-name="colon" unicode="&#x3a;" horiz-adv-x="248" d="M66 46 C66 15 92 -11 123 -11 C155 -11 182 15 182 46 C182 78 155 105 123 105 C92 105 66 78 66 46 L66 46 Z M66 328 C66 297 92 271 123 271 C155 271 182 297 182 328 C182 360 155 387 123 387 C92 387 66 360 66 328 L66 328 Z " />
<glyph glyph-name="semicolon" unicode="&#x3b;" horiz-adv-x="311" d="M156 -80 L245 98 L140 98 L66 -80 L156 -80 Z M129 328 C129 297 155 271 186 271 C218 271 245 297 245 328 C245 360 218 387 186 387 C155 387 129 360 129 328 L129 328 Z " />
<glyph glyph-name="less" unicode="&#x3c;" horiz-adv-x="402" d="M66 162 L336 48 L336 142 L156 216 L336 291 L336 385 L66 273 L66 162 Z " />
<glyph glyph-name="equal" unicode="&#x3d;" horiz-adv-x="411" d="M66 258 L345 258 L345 350 L66 350 L66 258 Z M66 47 L345 47 L345 139 L66 139 L66 47 Z " />
<glyph glyph-name="greater" unicode="&#x3e;" horiz-adv-x="402" d="M336 273 L66 385 L66 291 L246 216 L66 142 L66 48 L336 162 L336 273 Z " />
<glyph glyph-name="question" unicode="&#x3f;" horiz-adv-x="501" d="M337 410 C325 314 228 266 204 176 L302 176 C345 257 433 319 435 407 C435 436 432 589 244 589 C66 589 66 425 66 406 L66 397 L164 397 L164 407 C164 455 192 497 246 497 C319 497 337 456 337 410 L337 410 Z M197 59 C197 27 223 0 254 0 C286 0 313 27 313 59 C313 90 286 116 254 116 C223 116 197 90 197 59 L197 59 Z " />
<glyph glyph-name="at" unicode="&#x40;" horiz-adv-x="924" d="M857 205 C857 416 682 589 462 589 C241 589 66 416 66 205 C66 -8 241 -182 462 -182 C508 -182 547 -176 589 -162 L589 -82 C550 -97 507 -107 462 -107 C282 -107 147 32 147 202 C147 375 282 514 462 514 C640 514 775 376 776 205 C776 162 763 93 701 93 C657 93 640 151 638 186 L638 378 L553 378 L553 350 C509 380 476 387 439 387 C340 387 259 306 259 205 C259 103 340 20 439 20 C489 20 535 31 582 89 C607 20 705 20 705 20 C858 20 857 196 857 205 L857 205 Z M449 102 C394 102 351 149 351 205 C351 259 394 306 449 306 C502 306 546 259 546 205 C546 149 502 102 449 102 L449 102 Z " />
<glyph glyph-name="A" unicode="A" horiz-adv-x="612" d="M235 579 L24 0 L130 0 L167 103 L444 103 L482 0 L588 0 L377 579 L235 579 Z M306 483 L411 194 L200 194 L306 483 Z " />
<glyph glyph-name="B" unicode="B" horiz-adv-x="553" d="M66 0 L277 0 C399 0 507 34 507 161 C507 258 445 294 402 303 C447 316 480 347 480 424 C480 570 342 579 303 579 L66 579 L66 0 Z M164 92 L164 251 L314 251 C372 251 409 234 409 171 C409 109 372 92 314 92 L164 92 Z M382 414 C382 342 306 343 306 343 L164 343 L164 487 L306 487 C306 487 382 487 382 414 L382 414 Z " />
<glyph glyph-name="C" unicode="C" horiz-adv-x="697" d="M363 -11 C503 -11 621 79 659 203 L549 203 C517 130 446 81 363 81 C250 81 154 175 154 289 C154 407 250 497 363 497 C446 497 517 448 549 375 L659 375 C621 499 503 589 363 589 C192 589 56 455 56 289 C56 123 192 -11 363 -11 L363 -11 Z " />
<glyph glyph-name="D" unicode="D" horiz-adv-x="618" d="M66 0 L286 0 C458 0 572 124 572 289 C572 454 458 579 286 579 L66 579 L66 0 Z M292 487 C406 487 474 405 474 289 C474 173 406 92 292 92 L164 92 L164 487 L292 487 Z " />
<glyph glyph-name="E" unicode="E" horiz-adv-x="504" d="M164 92 L164 237 L432 237 L432 329 L164 329 L164 487 L454 487 L454 579 L66 579 L66 0 L454 0 L454 92 L164 92 Z " />
<glyph glyph-name="F" unicode="F" horiz-adv-x="500" d="M164 487 L454 487 L454 579 L66 579 L66 0 L164 0 L164 215 L432 215 L432 307 L164 307 L164 487 Z " />
<glyph glyph-name="G" unicode="G" horiz-adv-x="701" d="M410 324 L410 234 L551 234 C551 234 535 81 363 81 C248 81 154 175 154 289 C154 407 248 497 363 497 C440 497 511 470 554 407 L629 459 C604 495 523 589 363 589 C188 589 56 455 56 289 C56 123 191 -11 363 -11 C390 -11 611 -2 651 231 L651 324 L410 324 Z " />
<glyph glyph-name="H" unicode="H" horiz-adv-x="607" d="M443 0 L541 0 L541 579 L443 579 L443 306 L164 306 L164 579 L66 579 L66 0 L164 0 L164 214 L443 214 L443 0 Z " />
<glyph glyph-name="I" unicode="I" horiz-adv-x="230" d="M66 0 L164 0 L164 579 L66 579 L66 0 Z " />
<glyph glyph-name="J" unicode="J" horiz-adv-x="456" d="M198 81 C159 81 119 103 96 126 L16 78 C38 47 94 -11 192 -11 C314 -11 395 62 395 163 L395 579 L297 579 L297 162 C297 136 269 81 198 81 L198 81 Z " />
<glyph glyph-name="K" unicode="K" horiz-adv-x="552" d="M541 0 L264 295 L513 579 L383 579 L163 328 L163 579 L66 579 L66 0 L163 0 L163 258 L406 0 L541 0 Z " />
<glyph glyph-name="L" unicode="L" horiz-adv-x="484" d="M164 579 L66 579 L66 0 L453 0 L453 92 L164 92 L164 579 Z " />
<glyph glyph-name="M" unicode="M" horiz-adv-x="746" d="M380 92 L582 415 L582 0 L680 0 L680 579 L569 579 L373 266 L177 579 L66 579 L66 0 L164 0 L164 415 L366 92 L380 92 Z " />
<glyph glyph-name="N" unicode="N" horiz-adv-x="634" d="M470 170 L160 579 L66 579 L66 0 L164 0 L164 409 L476 0 L568 0 L568 579 L470 579 L470 170 Z " />
<glyph glyph-name="O" unicode="O" horiz-adv-x="724" d="M362 589 C191 589 56 455 56 289 C56 123 191 -11 362 -11 C533 -11 668 123 668 289 C668 455 533 589 362 589 L362 589 Z M362 81 C249 81 154 175 154 289 C154 407 249 497 362 497 C475 497 570 407 570 289 C570 175 475 81 362 81 L362 81 Z " />
<glyph glyph-name="P" unicode="P" horiz-adv-x="529" d="M66 579 L66 0 L164 0 L164 172 L301 172 C301 172 503 174 503 375 C503 577 301 579 301 579 L66 579 Z M405 375 C405 292 357 264 295 264 L164 264 L164 487 L295 487 C357 487 405 458 405 375 L405 375 Z " />
<glyph glyph-name="Q" unicode="Q" horiz-adv-x="724" d="M668 289 C668 455 533 589 362 589 C191 589 56 455 56 289 C56 123 191 -11 362 -11 L379 -11 L438 -116 L532 -116 L466 6 C585 48 668 158 668 289 L668 289 Z M362 81 C249 81 154 175 154 289 C154 407 249 497 362 497 C475 497 570 407 570 289 C570 175 475 81 362 81 L362 81 Z " />
<glyph glyph-name="R" unicode="R" horiz-adv-x="539" d="M515 0 L370 185 C429 204 503 253 503 375 C503 577 301 579 301 579 L66 579 L66 0 L164 0 L164 172 L266 172 L406 0 L515 0 Z M164 487 L295 487 C357 487 405 458 405 375 C405 292 357 264 295 264 L164 264 L164 487 Z " />
<glyph glyph-name="S" unicode="S" horiz-adv-x="527" d="M265 -11 C431 -11 481 92 481 148 C481 359 151 295 151 426 C151 465 199 497 247 497 C296 497 353 481 388 441 L459 494 C439 524 381 589 254 589 C92 589 54 487 54 433 C54 220 383 263 383 155 C383 140 364 81 270 81 C192 81 135 123 112 154 L40 97 C68 56 132 -11 265 -11 L265 -11 Z " />
<glyph glyph-name="T" unicode="T" horiz-adv-x="554" d="M228 487 L228 0 L326 0 L326 487 L513 487 L513 579 L41 579 L41 487 L228 487 Z " />
<glyph glyph-name="U" unicode="U" horiz-adv-x="592" d="M296 -11 C296 -11 532 -11 532 224 L532 579 L435 579 L435 224 C435 202 429 81 296 81 C163 81 157 202 157 224 L157 579 L60 579 L60 224 C60 -11 296 -11 296 -11 L296 -11 Z " />
<glyph glyph-name="V" unicode="V" horiz-adv-x="612" d="M377 0 L588 579 L482 579 L306 96 L130 579 L24 579 L235 0 L377 0 Z " />
<glyph glyph-name="W" unicode="W" horiz-adv-x="842" d="M470 579 L372 579 L246 100 L126 579 L23 579 L171 0 L321 0 L421 381 L521 0 L671 0 L819 579 L716 579 L596 100 L470 579 Z " />
<glyph glyph-name="X" unicode="X" horiz-adv-x="542" d="M271 199 L401 0 L518 0 L330 289 L518 579 L401 579 L271 379 L141 579 L24 579 L212 289 L24 0 L141 0 L271 199 Z " />
<glyph glyph-name="Y" unicode="Y" horiz-adv-x="564" d="M282 308 L136 579 L24 579 L233 195 L233 0 L331 0 L331 195 L540 579 L428 579 L282 308 Z " />
<glyph glyph-name="Z" unicode="Z" horiz-adv-x="518" d="M162 92 L467 485 L467 579 L51 579 L51 487 L344 487 L41 95 L41 0 L477 0 L477 92 L162 92 Z " />
<glyph glyph-name="bracketleft" unicode="&#x5b;" horiz-adv-x="386" d="M164 627 L320 627 L320 719 L66 719 L66 -147 L320 -147 L320 -55 L164 -55 L164 627 Z " />
<glyph glyph-name="backslash" unicode="&#x5c;" horiz-adv-x="581" d="M165 719 L66 719 L416 -147 L515 -147 L165 719 Z " />
<glyph glyph-name="bracketright" unicode="&#x5d;" horiz-adv-x="386" d="M222 -55 L66 -55 L66 -147 L320 -147 L320 719 L66 719 L66 627 L222 627 L222 -55 Z " />
<glyph glyph-name="asciicircum" unicode="&#x5e;" horiz-adv-x="436" d="M149 579 L66 388 L164 388 L218 510 L272 388 L370 388 L287 579 L149 579 Z " />
<glyph glyph-name="underscore" unicode="&#x5f;" horiz-adv-x="411" d="M66 -131 L345 -131 L345 -41 L66 -41 L66 -131 Z " />
<glyph glyph-name="grave" unicode="&#x60;" horiz-adv-x="309" d="M243 401 L170 579 L66 579 C120 472 136 441 155 401 L243 401 Z " />
<glyph glyph-name="a" unicode="a" horiz-adv-x="582" d="M418 0 L516 0 L516 424 L418 424 L418 381 C359 435 299 435 264 435 C145 435 46 335 46 212 C46 89 145 -11 264 -11 C299 -11 359 -11 418 43 L418 0 Z M280 81 C205 81 144 135 144 212 C144 289 205 343 280 343 C356 343 418 289 418 212 C418 135 356 81 280 81 L280 81 Z " />
<glyph glyph-name="b" unicode="b" horiz-adv-x="582" d="M164 43 C223 -11 283 -11 318 -11 C437 -11 536 89 536 212 C536 335 437 435 318 435 C283 435 223 435 164 381 L164 598 L66 598 L66 0 L164 0 L164 43 Z M302 81 C226 81 164 135 164 212 C164 289 226 343 302 343 C377 343 438 289 438 212 C438 135 377 81 302 81 L302 81 Z " />
<glyph glyph-name="c" unicode="c" horiz-adv-x="530" d="M46 212 C46 89 147 -11 275 -11 C378 -11 466 49 494 150 L390 150 C372 104 326 81 273 81 C204 81 144 136 144 212 C144 288 204 343 273 343 C326 343 372 320 390 274 L494 274 C466 375 378 435 275 435 C147 435 46 335 46 212 L46 212 Z " />
<glyph glyph-name="d" unicode="d" horiz-adv-x="582" d="M418 0 L516 0 L516 598 L418 598 L418 381 C359 435 299 435 264 435 C145 435 46 335 46 212 C46 89 145 -11 264 -11 C299 -11 359 -11 418 43 L418 0 Z M280 81 C205 81 144 135 144 212 C144 289 205 343 280 343 C356 343 418 289 418 212 C418 135 356 81 280 81 L280 81 Z " />
<glyph glyph-name="e" unicode="e" horiz-adv-x="520" d="M482 203 C482 356 375 435 264 435 C136 435 46 335 46 212 C46 78 142 -11 270 -11 C355 -11 432 27 432 27 L377 105 C327 81 271 81 271 81 C224 81 165 99 144 170 L482 170 L482 203 Z M264 343 C311 343 365 317 383 254 L145 254 C163 317 217 343 264 343 L264 343 Z " />
<glyph glyph-name="f" unicode="f" horiz-adv-x="381" d="M30 332 L121 332 L121 0 L219 0 L219 332 L335 332 L335 424 L219 424 L219 450 C219 450 219 524 305 525 C305 525 311 525 334 523 L334 612 C308 616 286 618 263 618 C241 618 121 612 121 450 L121 424 L30 424 L30 332 Z " />
<glyph glyph-name="g" unicode="g" horiz-adv-x="582" d="M418 10 C418 -84 332 -107 284 -107 C239 -107 195 -99 151 -72 L106 -147 C137 -168 202 -199 283 -199 C411 -199 516 -115 516 8 L516 424 L418 424 L418 381 C359 435 299 435 264 435 C145 435 46 335 46 212 C46 89 145 -11 264 -11 C299 -11 359 -11 418 43 L418 10 Z M280 81 C205 81 144 135 144 212 C144 289 205 343 280 343 C356 343 418 289 418 212 C418 135 356 81 280 81 L280 81 Z " />
<glyph glyph-name="h" unicode="h" horiz-adv-x="521" d="M367 0 L465 0 L465 276 C465 283 465 435 294 435 C288 435 208 435 164 381 L164 598 L66 598 L66 0 L164 0 L164 229 C164 259 187 343 271 343 C363 343 367 268 367 237 L367 0 Z " />
<glyph glyph-name="i" unicode="i" horiz-adv-x="230" d="M66 0 L164 0 L164 424 L66 424 L66 0 Z M58 520 C58 489 84 463 115 463 C147 463 174 489 174 520 C174 552 147 579 115 579 C84 579 58 552 58 520 L58 520 Z " />
<glyph glyph-name="j" unicode="j" horiz-adv-x="230" d="M66 -11 C66 -11 62 -83 -12 -83 L-48 -80 L-48 -172 C-31 -174 -2 -175 22 -175 C44 -175 164 -175 164 -12 L164 424 L66 424 L66 -11 Z M58 520 C58 489 84 463 115 463 C147 463 174 489 174 520 C174 552 147 579 115 579 C84 579 58 552 58 520 L58 520 Z " />
<glyph glyph-name="k" unicode="k" horiz-adv-x="493" d="M473 0 L268 217 L453 424 L323 424 L164 245 L164 599 L66 599 L66 0 L164 0 L164 186 L340 0 L473 0 Z " />
<glyph glyph-name="l" unicode="l" horiz-adv-x="230" d="M66 0 L164 0 L164 598 L66 598 L66 0 Z " />
<glyph glyph-name="m" unicode="m" horiz-adv-x="767" d="M528 343 C599 343 613 279 613 249 L613 0 L711 0 L711 269 C711 323 679 435 546 435 C522 435 448 435 403 360 C375 408 332 435 278 435 C265 435 211 435 164 381 L164 424 L66 424 L66 0 L164 0 L164 229 C164 259 172 343 253 343 C326 343 340 279 340 249 L340 0 L438 0 L438 235 C438 274 451 343 528 343 L528 343 Z " />
<glyph glyph-name="n" unicode="n" horiz-adv-x="521" d="M367 0 L465 0 L465 276 C465 283 465 435 294 435 C288 435 208 435 164 381 L164 424 L66 424 L66 0 L164 0 L164 229 C164 259 187 343 271 343 C363 343 367 268 367 237 L367 0 Z " />
<glyph glyph-name="o" unicode="o" horiz-adv-x="556" d="M278 435 C148 435 46 335 46 212 C46 89 148 -11 278 -11 C408 -11 510 89 510 212 C510 335 408 435 278 435 L278 435 Z M278 81 C204 81 144 136 144 212 C144 288 204 343 278 343 C352 343 412 288 412 212 C412 136 352 81 278 81 L278 81 Z " />
<glyph glyph-name="p" unicode="p" horiz-adv-x="582" d="M164 43 C223 -11 283 -11 318 -11 C437 -11 536 89 536 212 C536 335 437 435 318 435 C283 435 223 435 164 381 L164 424 L66 424 L66 -175 L164 -175 L164 43 Z M302 81 C226 81 164 135 164 212 C164 289 226 343 302 343 C377 343 438 289 438 212 C438 135 377 81 302 81 L302 81 Z " />
<glyph glyph-name="q" unicode="q" horiz-adv-x="582" d="M418 -175 L516 -175 L516 424 L418 424 L418 381 C359 435 299 435 264 435 C145 435 46 335 46 212 C46 89 145 -11 264 -11 C299 -11 359 -11 418 43 L418 -175 Z M280 81 C205 81 144 135 144 212 C144 289 205 343 280 343 C356 343 418 289 418 212 C418 135 356 81 280 81 L280 81 Z " />
<glyph glyph-name="r" unicode="r" horiz-adv-x="373" d="M66 0 L164 0 L164 165 C164 232 212 337 319 337 C319 337 326 337 343 334 L343 428 C332 429 320 429 311 429 C294 429 215 429 164 356 L164 424 L66 424 L66 0 Z " />
<glyph glyph-name="s" unicode="s" horiz-adv-x="417" d="M31 73 C54 37 109 -11 208 -11 C325 -11 386 60 386 114 C386 279 141 221 141 305 C141 338 181 346 209 346 C257 346 298 313 298 313 L358 371 C336 397 290 435 210 435 C97 435 43 365 43 306 C43 139 288 188 288 116 C288 77 215 77 199 77 C199 77 129 78 101 118 L31 73 Z " />
<glyph glyph-name="t" unicode="t" horiz-adv-x="381" d="M30 332 L121 332 L121 163 C121 0 241 0 263 0 C305 0 334 3 334 3 L334 88 C321 87 296 87 296 87 C220 87 219 143 219 161 L219 332 L335 332 L335 424 L219 424 L219 598 C183 589 159 580 121 571 L121 424 L30 424 L30 332 Z " />
<glyph glyph-name="u" unicode="u" horiz-adv-x="522" d="M261 -11 C446 -11 461 139 461 191 L461 424 L363 424 L363 187 C363 156 352 81 261 81 C170 81 159 156 159 187 L159 424 L61 424 L61 191 C61 139 76 -11 261 -11 L261 -11 Z " />
<glyph glyph-name="v" unicode="v" horiz-adv-x="504" d="M478 424 L371 424 L252 109 L133 424 L26 424 L193 0 L311 0 L478 424 Z " />
<glyph glyph-name="w" unicode="w" horiz-adv-x="710" d="M355 279 L428 0 L559 0 L684 424 L579 424 L495 104 L409 424 L301 424 L215 104 L131 424 L26 424 L151 0 L282 0 L355 279 Z " />
<glyph glyph-name="x" unicode="x" horiz-adv-x="462" d="M231 129 L318 0 L436 0 L292 213 L435 424 L318 424 L231 297 L144 424 L27 424 L170 213 L26 0 L144 0 L231 129 Z " />
<glyph glyph-name="y" unicode="y" horiz-adv-x="504" d="M478 424 L371 424 L252 109 L133 424 L26 424 L201 -21 C184 -79 142 -87 91 -87 C79 -87 69 -87 61 -85 L61 -174 C71 -175 86 -175 114 -175 C174 -175 247 -158 292 -49 L478 424 Z " />
<glyph glyph-name="z" unicode="z" horiz-adv-x="448" d="M173 92 L398 329 L398 424 L50 424 L50 332 L274 332 L50 97 L50 0 L398 0 L398 92 L173 92 Z " />
<glyph glyph-name="braceleft" unicode="&#x7b;" horiz-adv-x="398" d="M66 243 L80 243 C154 236 153 143 153 143 L153 7 C153 -145 255 -147 285 -147 L332 -147 L332 -55 L321 -55 C284 -55 251 -30 251 11 L251 169 C251 249 172 282 159 286 C172 290 251 323 251 403 L251 561 C251 602 284 627 321 627 L332 627 L332 719 L285 719 C255 719 153 717 153 565 L153 429 C153 429 154 335 80 328 L66 328 L66 243 Z " />
<glyph glyph-name="bar" unicode="&#x7c;" horiz-adv-x="230" d="M66 -147 L164 -147 L164 719 L66 719 L66 -147 Z " />
<glyph glyph-name="braceright" unicode="&#x7d;" horiz-adv-x="398" d="M332 328 L318 328 C244 335 245 429 245 429 L245 565 C245 717 143 719 113 719 L66 719 L66 627 L77 627 C114 627 147 602 147 561 L147 403 C147 323 226 290 239 286 C226 282 147 249 147 169 L147 11 C147 -30 114 -55 77 -55 L66 -55 L66 -147 L113 -147 C143 -147 245 -145 245 7 L245 143 C245 143 244 236 318 243 L332 243 L332 328 Z " />
<glyph glyph-name="asciitilde" unicode="&#x7e;" horiz-adv-x="492" d="M330 139 C350 139 423 143 426 269 L349 269 C349 233 338 223 310 223 C271 223 230 269 162 269 C142 269 69 265 66 139 L143 139 C143 175 154 185 182 185 C223 185 280 141 330 139 L330 139 Z " />
<glyph glyph-name="uni00A0" unicode="&#xa0;" horiz-adv-x="198" d="" />
<glyph glyph-name="exclamdown" unicode="&#xa1;" horiz-adv-x="248" d="M74 0 L172 0 L165 418 L81 418 L74 0 Z M66 520 C66 489 92 463 123 463 C155 463 182 489 182 520 C182 552 155 579 123 579 C92 579 66 552 66 520 L66 520 Z " />
<glyph glyph-name="cent" unicode="&#xa2;" horiz-adv-x="735" d="M325 -115 L421 -115 L421 -7 C539 10 635 93 669 203 L559 203 C527 130 456 81 373 81 C260 81 164 175 164 289 C164 407 260 497 373 497 C456 497 527 448 559 375 L669 375 C635 484 539 567 421 585 L421 693 L325 693 L325 585 C177 563 66 439 66 289 C66 139 177 15 325 -7 L325 -115 Z " />
<glyph glyph-name="sterling" unicode="&#xa3;" horiz-adv-x="599" d="M88 199 L186 199 C159 120 130 92 130 92 L66 92 L66 0 L533 0 L533 92 L233 92 C258 127 275 165 283 199 L390 199 L390 291 L283 291 C272 327 248 362 248 414 C248 462 254 497 326 497 C381 497 414 455 414 407 L414 363 L512 363 L512 378 C512 423 509 589 333 589 C151 589 150 453 150 424 C150 389 155 362 186 291 L88 291 L88 199 Z " />
<glyph glyph-name="currency" unicode="&#xa4;" horiz-adv-x="506" d="M253 357 C234 357 213 353 193 347 C185 364 173 384 165 402 L66 402 L121 295 C100 266 88 233 88 201 C88 169 100 136 121 107 L66 0 L165 0 C173 18 185 38 193 55 C213 49 234 45 253 45 C272 45 293 49 313 55 C321 38 333 18 341 0 L440 0 L385 107 C406 136 418 169 418 201 C418 233 406 266 385 295 L440 402 L341 402 C333 384 321 364 313 347 C293 353 272 357 253 357 L253 357 Z M253 286 C301 286 338 250 338 201 C338 152 301 116 253 116 C205 116 168 152 168 201 C168 250 205 286 253 286 L253 286 Z " />
<glyph glyph-name="yen" unicode="&#xa5;" horiz-adv-x="648" d="M163 220 L261 220 L275 195 L275 150 L163 150 L163 74 L275 74 L275 0 L373 0 L373 74 L485 74 L485 150 L373 150 L373 195 L386 220 L485 220 L485 296 L428 296 L582 579 L470 579 L324 308 L178 579 L66 579 L220 296 L163 296 L163 220 Z " />
<glyph glyph-name="brokenbar" unicode="&#xa6;" horiz-adv-x="230" d="M66 353 L164 353 L164 719 L66 719 L66 353 Z M66 -147 L164 -147 L164 219 L66 219 L66 -147 Z " />
<glyph glyph-name="section" unicode="&#xa7;" horiz-adv-x="533" d="M467 268 C467 425 222 375 222 459 C222 492 262 500 290 500 C338 500 379 467 379 467 L439 525 C417 551 371 589 291 589 C178 589 124 519 124 460 C124 438 128 420 135 405 C96 379 78 340 78 306 C78 148 323 188 323 116 C323 77 250 77 234 77 C234 77 164 78 136 118 L66 73 C89 37 144 -11 243 -11 C360 -11 421 60 421 114 C421 138 415 158 406 174 C446 199 467 236 467 268 L467 268 Z M369 270 C369 247 349 238 322 238 C265 238 176 269 176 305 C176 325 193 332 216 332 C273 332 369 300 369 270 L369 270 Z " />
<glyph glyph-name="dieresis" unicode="&#xa8;" horiz-adv-x="430" d="M66 519 C66 485 93 459 126 459 C160 459 187 485 187 519 C187 552 160 579 126 579 C93 579 66 552 66 519 L66 519 Z M243 519 C243 485 270 459 304 459 C337 459 364 485 364 519 C364 552 337 579 304 579 C270 579 243 552 243 519 L243 519 Z " />
<glyph glyph-name="copyright" unicode="&#xa9;" horiz-adv-x="732" d="M366 589 C200 589 66 455 66 289 C66 123 200 -11 366 -11 C532 -11 666 123 666 289 C666 455 532 589 366 589 L366 589 Z M366 46 C231 46 123 155 123 289 C123 423 231 532 366 532 C500 532 609 423 609 289 C609 155 500 46 366 46 L366 46 Z M419 262 C410 239 392 226 364 226 C331 226 304 253 304 289 C304 326 331 353 364 353 C392 353 410 339 418 317 L509 317 C495 382 436 431 365 431 C284 431 219 367 219 289 C219 211 284 148 365 148 C436 148 495 197 509 262 L419 262 Z " />
<glyph glyph-name="ordfeminine" unicode="&#xaa;" horiz-adv-x="344" d="M66 409 C66 360 95 328 152 328 C168 328 189 331 214 349 L214 334 L278 334 L278 481 C278 550 239 579 165 579 C127 579 81 560 81 560 L100 506 C129 517 145 519 161 519 C203 519 213 503 214 475 C191 485 164 486 153 486 C103 486 66 456 66 409 L66 409 Z M176 380 C158 380 130 380 130 407 C130 438 156 438 176 438 C194 438 214 433 214 407 C214 387 193 380 176 380 L176 380 Z " />
<glyph glyph-name="guillemotleft" unicode="&#xab;" horiz-adv-x="581" d="M66 207 L179 0 L280 0 L168 207 L280 412 L178 412 L66 207 Z M301 207 L414 0 L515 0 L403 207 L515 412 L413 412 L301 207 Z " />
<glyph glyph-name="logicalnot" unicode="&#xac;" horiz-adv-x="519" d="M355 52 L453 52 L453 271 L66 271 L66 179 L355 179 L355 52 Z " />
<glyph glyph-name="uni00AD" unicode="&#xad;" horiz-adv-x="198" d="" />
<glyph glyph-name="registered" unicode="&#xae;" horiz-adv-x="732" d="M366 589 C200 589 66 455 66 289 C66 123 200 -11 366 -11 C532 -11 666 123 666 289 C666 455 532 589 366 589 L366 589 Z M366 46 C231 46 123 155 123 289 C123 423 231 532 366 532 C500 532 609 423 609 289 C609 155 500 46 366 46 L366 46 Z M439 239 C465 254 493 280 493 329 C493 437 376 437 376 437 L247 437 L247 136 L332 136 L332 221 L354 221 L425 136 L519 136 L439 239 Z M332 375 L365 375 C389 375 408 362 408 329 C408 296 389 284 365 284 L332 284 L332 375 Z " />
<glyph glyph-name="macron" unicode="&#xaf;" horiz-adv-x="410" d="M66 490 L344 490 L344 579 L66 579 L66 490 Z " />
<glyph glyph-name="degree" unicode="&#xb0;" horiz-adv-x="378" d="M189 579 C121 579 66 525 66 457 C66 389 121 334 189 334 C257 334 312 389 312 457 C312 525 257 579 189 579 L189 579 Z M189 405 C160 405 137 429 137 457 C137 485 160 508 189 508 C217 508 240 485 240 457 C240 429 217 405 189 405 L189 405 Z " />
<glyph glyph-name="plusminus" unicode="&#xb1;" horiz-adv-x="420" d="M354 365 L259 365 L259 467 L161 467 L161 365 L66 365 L66 283 L161 283 L161 181 L259 181 L259 283 L354 283 L354 365 Z M66 82 L66 0 L354 0 L354 82 L66 82 Z " />
<glyph glyph-name="twosuperior" unicode="&#xb2;" horiz-adv-x="326" d="M66 471 L130 471 L130 490 C130 499 135 515 156 515 C179 515 183 501 183 487 C183 475 176 458 75 372 L75 316 L260 316 L260 378 L174 378 C208 404 253 445 253 492 C253 521 240 579 156 579 C70 579 66 505 66 497 L66 471 Z " />
<glyph glyph-name="threesuperior" unicode="&#xb3;" horiz-adv-x="313" d="M217 458 C242 465 247 497 247 510 C247 537 234 589 153 589 C70 589 66 518 66 510 L66 501 L128 501 C128 510 131 525 151 525 C172 525 177 508 177 502 C177 480 160 480 149 480 L135 480 L135 436 L149 436 C160 436 176 436 176 414 C176 408 172 391 151 391 C131 391 128 406 128 415 L66 415 L66 406 C66 398 70 327 153 327 C234 327 247 379 247 406 C247 419 244 446 217 458 L217 458 Z " />
<glyph glyph-name="acute" unicode="&#xb4;" horiz-adv-x="312" d="M163 453 L246 579 L134 579 L66 453 L163 453 Z " />
<glyph glyph-name="mu" unicode="&#xb5;" horiz-adv-x="532" d="M66 -175 L164 -175 L164 9 C190 -3 224 -11 266 -11 C451 -11 466 139 466 191 L466 424 L368 424 L368 187 C368 156 357 81 266 81 C175 81 164 156 164 187 L164 424 L66 424 L66 -175 Z " />
<glyph glyph-name="paragraph" unicode="&#xb6;" horiz-adv-x="690" d="M624 579 L281 579 C281 579 66 579 66 377 C66 176 295 176 295 176 L295 0 L393 0 L393 487 L526 487 L526 0 L624 0 L624 579 Z " />
<glyph glyph-name="periodcentered" unicode="&#xb7;" horiz-adv-x="243" d="M66 206 C66 176 91 151 121 151 C151 151 177 176 177 206 C177 236 151 262 121 262 C91 262 66 236 66 206 L66 206 Z " />
<glyph glyph-name="cedilla" unicode="&#xb8;" horiz-adv-x="288" d="M101 6 L85 -76 L110 -80 C110 -80 140 -85 140 -110 C140 -130 123 -140 94 -140 C84 -140 75 -139 66 -136 L66 -191 C83 -193 110 -195 124 -195 C145 -195 222 -185 222 -117 C222 -57 163 -48 163 -48 L172 6 L101 6 Z " />
<glyph glyph-name="onesuperior" unicode="&#xb9;" horiz-adv-x="271" d="M140 579 L66 557 L66 485 L135 503 L135 334 L205 334 L205 579 L140 579 Z " />
<glyph glyph-name="ordmasculine" unicode="&#xba;" horiz-adv-x="378" d="M189 579 C121 579 66 525 66 457 C66 389 121 334 189 334 C257 334 312 389 312 457 C312 525 257 579 189 579 L189 579 Z M189 405 C160 405 137 429 137 457 C137 485 160 508 189 508 C217 508 240 485 240 457 C240 429 217 405 189 405 L189 405 Z " />
<glyph glyph-name="guillemotright" unicode="&#xbb;" horiz-adv-x="581" d="M403 412 L301 412 L413 207 L301 0 L402 0 L515 207 L403 412 Z M168 412 L66 412 L178 207 L66 0 L167 0 L280 207 L168 412 Z " />
<glyph glyph-name="onequarter" unicode="&#xbc;" horiz-adv-x="671" d="M116 0 L209 0 L534 579 L441 579 L116 0 Z M140 579 L66 557 L66 485 L135 503 L135 334 L205 334 L205 579 L140 579 Z M605 101 L577 101 L577 245 L464 245 L380 105 L380 44 L507 44 L507 0 L577 0 L577 44 L605 44 L605 101 Z M452 101 L507 191 L507 101 L452 101 Z " />
<glyph glyph-name="onehalf" unicode="&#xbd;" horiz-adv-x="661" d="M401 155 L465 155 L465 174 C465 183 470 199 491 199 C514 199 518 185 518 171 C518 159 511 142 410 56 L410 0 L595 0 L595 62 L509 62 C543 88 588 129 588 176 C588 205 575 263 491 263 C405 263 401 189 401 181 L401 155 Z M140 579 L66 557 L66 485 L135 503 L135 334 L205 334 L205 579 L140 579 Z M116 0 L209 0 L534 579 L441 579 L116 0 Z " />
<glyph glyph-name="threequarters" unicode="&#xbe;" horiz-adv-x="679" d="M217 458 C242 465 247 497 247 510 C247 537 234 589 153 589 C70 589 66 518 66 510 L66 501 L128 501 C128 510 131 525 151 525 C172 525 177 508 177 502 C177 480 160 480 149 480 L135 480 L135 436 L149 436 C160 436 176 436 176 414 C176 408 172 391 151 391 C131 391 128 406 128 415 L66 415 L66 406 C66 398 70 327 153 327 C234 327 247 379 247 406 C247 419 244 446 217 458 L217 458 Z M613 101 L585 101 L585 245 L472 245 L388 105 L388 44 L515 44 L515 0 L585 0 L585 44 L613 44 L613 101 Z M460 101 L515 191 L515 101 L460 101 Z M124 0 L217 0 L542 579 L449 579 L124 0 Z " />
<glyph glyph-name="questiondown" unicode="&#xbf;" horiz-adv-x="501" d="M164 179 C176 275 273 323 297 413 L199 413 C156 332 68 270 66 182 C66 153 69 0 257 0 C435 0 435 164 435 183 L435 192 L337 192 L337 182 C337 134 309 92 255 92 C182 92 164 133 164 179 L164 179 Z M304 530 C304 562 278 589 247 589 C215 589 188 562 188 530 C188 499 215 473 247 473 C278 473 304 499 304 530 L304 530 Z " />
<glyph glyph-name="Agrave" unicode="&#xc0;" horiz-adv-x="612" d="M352 630 L284 756 L172 756 L255 630 L352 630 Z M235 579 L24 0 L130 0 L167 103 L444 103 L482 0 L588 0 L377 579 L235 579 Z M306 483 L411 194 L200 194 L306 483 Z " />
<glyph glyph-name="Aacute" unicode="&#xc1;" horiz-adv-x="612" d="M357 630 L440 756 L328 756 L260 630 L357 630 Z M235 579 L24 0 L130 0 L167 103 L444 103 L482 0 L588 0 L377 579 L235 579 Z M306 483 L411 194 L200 194 L306 483 Z " />
<glyph glyph-name="Acircumflex" unicode="&#xc2;" horiz-adv-x="612" d="M237 798 L154 630 L256 630 L306 729 L356 630 L458 630 L375 798 L237 798 Z M235 579 L24 0 L130 0 L167 103 L444 103 L482 0 L588 0 L377 579 L235 579 Z M306 483 L411 194 L200 194 L306 483 Z " />
<glyph glyph-name="Atilde" unicode="&#xc3;" horiz-adv-x="612" d="M390 630 C410 630 483 634 486 760 L409 760 C409 724 398 714 370 714 C331 714 290 760 222 760 C202 760 129 756 126 630 L203 630 C203 666 214 676 242 676 C283 676 340 632 390 630 L390 630 Z M235 579 L24 0 L130 0 L167 103 L444 103 L482 0 L588 0 L377 579 L235 579 Z M306 483 L411 194 L200 194 L306 483 Z " />
<glyph glyph-name="Adieresis" unicode="&#xc4;" horiz-adv-x="612" d="M158 690 C158 656 185 630 218 630 C252 630 279 656 279 690 C279 723 252 750 218 750 C185 750 158 723 158 690 L158 690 Z M335 690 C335 656 362 630 396 630 C429 630 456 656 456 690 C456 723 429 750 396 750 C362 750 335 723 335 690 L335 690 Z M235 579 L24 0 L130 0 L167 103 L444 103 L482 0 L588 0 L377 579 L235 579 Z M306 483 L411 194 L200 194 L306 483 Z " />
<glyph glyph-name="Aring" unicode="&#xc5;" horiz-adv-x="612" d="M306 875 C238 875 183 821 183 753 C183 685 238 630 306 630 C374 630 429 685 429 753 C429 821 374 875 306 875 L306 875 Z M306 701 C277 701 254 725 254 753 C254 781 277 804 306 804 C334 804 357 781 357 753 C357 725 334 701 306 701 L306 701 Z M235 579 L24 0 L130 0 L167 103 L444 103 L482 0 L588 0 L377 579 L235 579 Z M306 483 L411 194 L200 194 L306 483 Z " />
<glyph glyph-name="AE" unicode="&#xc6;" horiz-adv-x="892" d="M397 579 L18 0 L134 0 L221 130 L454 130 L454 0 L842 0 L842 92 L552 92 L552 237 L820 237 L820 329 L552 329 L552 487 L842 487 L842 579 L397 579 Z M454 489 L454 222 L279 222 L454 489 Z " />
<glyph glyph-name="Ccedilla" unicode="&#xc7;" horiz-adv-x="697" d="M659 203 L549 203 C517 130 446 81 363 81 C250 81 154 175 154 289 C154 407 250 497 363 497 C446 497 517 448 549 375 L659 375 C621 499 503 589 363 589 C192 589 56 455 56 289 C56 135 173 8 327 -9 L314 -76 L339 -80 C339 -80 369 -85 369 -110 C369 -130 352 -140 323 -140 C313 -140 304 -139 295 -136 L295 -191 C312 -193 339 -195 353 -195 C374 -195 451 -185 451 -117 C451 -57 392 -48 392 -48 L398 -9 C522 4 624 89 659 203 L659 203 Z " />
<glyph glyph-name="Egrave" unicode="&#xc8;" horiz-adv-x="504" d="M164 92 L164 237 L432 237 L432 329 L164 329 L164 487 L454 487 L454 579 L66 579 L66 0 L454 0 L454 92 L164 92 Z M321 630 L253 756 L141 756 L224 630 L321 630 Z " />
<glyph glyph-name="Eacute" unicode="&#xc9;" horiz-adv-x="504" d="M164 92 L164 237 L432 237 L432 329 L164 329 L164 487 L454 487 L454 579 L66 579 L66 0 L454 0 L454 92 L164 92 Z M318 630 L401 756 L289 756 L221 630 L318 630 Z " />
<glyph glyph-name="Ecircumflex" unicode="&#xca;" horiz-adv-x="504" d="M164 92 L164 237 L432 237 L432 329 L164 329 L164 487 L454 487 L454 579 L66 579 L66 0 L454 0 L454 92 L164 92 Z M195 798 L112 630 L214 630 L264 729 L314 630 L416 630 L333 798 L195 798 Z " />
<glyph glyph-name="Edieresis" unicode="&#xcb;" horiz-adv-x="504" d="M164 92 L164 237 L432 237 L432 329 L164 329 L164 487 L454 487 L454 579 L66 579 L66 0 L454 0 L454 92 L164 92 Z M114 690 C114 656 141 630 174 630 C208 630 235 656 235 690 C235 723 208 750 174 750 C141 750 114 723 114 690 L114 690 Z M291 690 C291 656 318 630 352 630 C385 630 412 656 412 690 C412 723 385 750 352 750 C318 750 291 723 291 690 L291 690 Z " />
<glyph glyph-name="Igrave" unicode="&#xcc;" horiz-adv-x="230" d="M66 0 L164 0 L164 579 L66 579 L66 0 Z M163 630 L95 756 L-17 756 L66 630 L163 630 Z " />
<glyph glyph-name="Iacute" unicode="&#xcd;" horiz-adv-x="230" d="M164 579 L66 579 L66 0 L164 0 L164 579 Z M164 630 L247 756 L135 756 L67 630 L164 630 Z " />
<glyph glyph-name="Icircumflex" unicode="&#xce;" horiz-adv-x="230" d="M66 0 L164 0 L164 579 L66 579 L66 0 Z M46 798 L-37 630 L65 630 L115 729 L165 630 L267 630 L184 798 L46 798 Z " />
<glyph glyph-name="Idieresis" unicode="&#xcf;" horiz-adv-x="230" d="M66 0 L164 0 L164 579 L66 579 L66 0 Z M-26 690 C-26 656 1 630 34 630 C68 630 95 656 95 690 C95 723 68 750 34 750 C1 750 -26 723 -26 690 L-26 690 Z M135 690 C135 656 162 630 196 630 C229 630 256 656 256 690 C256 723 229 750 196 750 C162 750 135 723 135 690 L135 690 Z " />
<glyph glyph-name="Eth" unicode="&#xd0;" horiz-adv-x="637" d="M305 579 L85 579 L85 334 L18 334 L18 242 L85 242 L85 0 L305 0 C477 0 591 124 591 289 C591 454 477 579 305 579 L305 579 Z M311 92 L183 92 L183 242 L289 242 L289 334 L183 334 L183 487 L311 487 C425 487 493 405 493 289 C493 173 425 92 311 92 L311 92 Z " />
<glyph glyph-name="Ntilde" unicode="&#xd1;" horiz-adv-x="634" d="M470 170 L160 579 L66 579 L66 0 L164 0 L164 409 L476 0 L568 0 L568 579 L470 579 L470 170 Z M397 630 C417 630 490 634 493 760 L416 760 C416 724 405 714 377 714 C338 714 297 760 229 760 C209 760 136 756 133 630 L210 630 C210 666 221 676 249 676 C290 676 347 632 397 630 L397 630 Z " />
<glyph glyph-name="Ograve" unicode="&#xd2;" horiz-adv-x="724" d="M362 589 C191 589 56 455 56 289 C56 123 191 -11 362 -11 C533 -11 668 123 668 289 C668 455 533 589 362 589 L362 589 Z M362 81 C249 81 154 175 154 289 C154 407 249 497 362 497 C475 497 570 407 570 289 C570 175 475 81 362 81 L362 81 Z M408 630 L340 756 L228 756 L311 630 L408 630 Z " />
<glyph glyph-name="Oacute" unicode="&#xd3;" horiz-adv-x="724" d="M362 589 C191 589 56 455 56 289 C56 123 191 -11 362 -11 C533 -11 668 123 668 289 C668 455 533 589 362 589 L362 589 Z M362 81 C249 81 154 175 154 289 C154 407 249 497 362 497 C475 497 570 407 570 289 C570 175 475 81 362 81 L362 81 Z M407 630 L490 756 L378 756 L310 630 L407 630 Z " />
<glyph glyph-name="Ocircumflex" unicode="&#xd4;" horiz-adv-x="724" d="M362 589 C191 589 56 455 56 289 C56 123 191 -11 362 -11 C533 -11 668 123 668 289 C668 455 533 589 362 589 L362 589 Z M362 81 C249 81 154 175 154 289 C154 407 249 497 362 497 C475 497 570 407 570 289 C570 175 475 81 362 81 L362 81 Z M293 798 L210 630 L312 630 L362 729 L412 630 L514 630 L431 798 L293 798 Z " />
<glyph glyph-name="Otilde" unicode="&#xd5;" horiz-adv-x="724" d="M362 589 C191 589 56 455 56 289 C56 123 191 -11 362 -11 C533 -11 668 123 668 289 C668 455 533 589 362 589 L362 589 Z M362 81 C249 81 154 175 154 289 C154 407 249 497 362 497 C475 497 570 407 570 289 C570 175 475 81 362 81 L362 81 Z M446 630 C466 630 539 634 542 760 L465 760 C465 724 454 714 426 714 C387 714 346 760 278 760 C258 760 185 756 182 630 L259 630 C259 666 270 676 298 676 C339 676 396 632 446 630 L446 630 Z " />
<glyph glyph-name="Odieresis" unicode="&#xd6;" horiz-adv-x="724" d="M362 589 C191 589 56 455 56 289 C56 123 191 -11 362 -11 C533 -11 668 123 668 289 C668 455 533 589 362 589 L362 589 Z M362 81 C249 81 154 175 154 289 C154 407 249 497 362 497 C475 497 570 407 570 289 C570 175 475 81 362 81 L362 81 Z M214 690 C214 656 241 630 274 630 C308 630 335 656 335 690 C335 723 308 750 274 750 C241 750 214 723 214 690 L214 690 Z M391 690 C391 656 418 630 452 630 C485 630 512 656 512 690 C512 723 485 750 452 750 C418 750 391 723 391 690 L391 690 Z " />
<glyph glyph-name="multiply" unicode="&#xd7;" horiz-adv-x="419" d="M210 262 L128 342 L66 279 L148 197 L66 117 L128 55 L210 135 L291 55 L353 117 L272 197 L353 279 L291 342 L210 262 Z " />
<glyph glyph-name="Oslash" unicode="&#xd8;" horiz-adv-x="724" d="M156 -91 L255 -91 L291 -3 C314 -8 337 -11 362 -11 C533 -11 668 123 668 289 C668 398 609 494 519 546 L570 669 L471 669 L434 581 C411 586 387 589 362 589 C191 589 56 455 56 289 C56 178 116 82 206 30 L156 -91 Z M154 289 C154 407 249 497 362 497 C374 497 386 496 398 494 L243 119 C190 157 154 219 154 289 L154 289 Z M362 81 C350 81 338 81 327 83 L483 458 C535 421 570 360 570 289 C570 175 475 81 362 81 L362 81 Z " />
<glyph glyph-name="Ugrave" unicode="&#xd9;" horiz-adv-x="592" d="M296 -11 C296 -11 532 -11 532 224 L532 579 L435 579 L435 224 C435 202 429 81 296 81 C163 81 157 202 157 224 L157 579 L60 579 L60 224 C60 -11 296 -11 296 -11 L296 -11 Z M248 630 L165 756 L277 756 L345 630 L248 630 Z " />
<glyph glyph-name="Uacute" unicode="&#xda;" horiz-adv-x="592" d="M296 -11 C296 -11 532 -11 532 224 L532 579 L435 579 L435 224 C435 202 429 81 296 81 C163 81 157 202 157 224 L157 579 L60 579 L60 224 C60 -11 296 -11 296 -11 L296 -11 Z M247 630 L315 756 L427 756 L344 630 L247 630 Z " />
<glyph glyph-name="Ucircumflex" unicode="&#xdb;" horiz-adv-x="592" d="M296 -11 C296 -11 532 -11 532 224 L532 579 L435 579 L435 224 C435 202 429 81 296 81 C163 81 157 202 157 224 L157 579 L60 579 L60 224 C60 -11 296 -11 296 -11 L296 -11 Z M228 798 L145 630 L247 630 L297 729 L347 630 L449 630 L366 798 L228 798 Z " />
<glyph glyph-name="Udieresis" unicode="&#xdc;" horiz-adv-x="592" d="M296 -11 C296 -11 532 -11 532 224 L532 579 L435 579 L435 224 C435 202 429 81 296 81 C163 81 157 202 157 224 L157 579 L60 579 L60 224 C60 -11 296 -11 296 -11 L296 -11 Z M149 690 C149 723 176 750 209 750 C243 750 270 723 270 690 C270 656 243 630 209 630 C176 630 149 656 149 690 L149 690 Z M326 690 C326 723 353 750 387 750 C420 750 447 723 447 690 C447 656 420 630 387 630 C353 630 326 656 326 690 L326 690 Z " />
<glyph glyph-name="Yacute" unicode="&#xdd;" horiz-adv-x="564" d="M282 308 L136 579 L24 579 L233 195 L233 0 L331 0 L331 195 L540 579 L428 579 L282 308 Z M339 630 L422 756 L310 756 L242 630 L339 630 Z " />
<glyph glyph-name="Thorn" unicode="&#xde;" horiz-adv-x="529" d="M405 284 C405 201 357 173 295 173 L164 173 L164 396 L295 396 C357 396 405 367 405 284 L405 284 Z M164 488 L164 579 L66 579 L66 0 L164 0 L164 81 L301 81 C301 81 503 83 503 284 C503 486 301 488 301 488 L164 488 Z " />
<glyph glyph-name="germandbls" unicode="&#xdf;" horiz-adv-x="553" d="M255 579 C133 579 66 498 66 409 L66 0 L164 0 L164 397 C164 416 164 487 243 487 L306 487 C306 487 382 487 382 414 C382 342 306 343 306 343 L263 343 L263 251 L313 251 C371 251 409 234 409 171 C409 109 372 92 314 92 L266 92 L266 0 L277 0 C399 0 507 34 507 161 C507 258 445 294 402 303 C447 316 480 347 480 424 C480 570 342 579 303 579 L255 579 Z " />
<glyph glyph-name="agrave" unicode="&#xe0;" horiz-adv-x="582" d="M335 481 L267 607 L155 607 L238 481 L335 481 Z M418 0 L516 0 L516 424 L418 424 L418 381 C359 435 299 435 264 435 C145 435 46 335 46 212 C46 89 145 -11 264 -11 C299 -11 359 -11 418 43 L418 0 Z M280 81 C205 81 144 135 144 212 C144 289 205 343 280 343 C356 343 418 289 418 212 C418 135 356 81 280 81 L280 81 Z " />
<glyph glyph-name="aacute" unicode="&#xe1;" horiz-adv-x="582" d="M418 0 L516 0 L516 424 L418 424 L418 381 C359 435 299 435 264 435 C145 435 46 335 46 212 C46 89 145 -11 264 -11 C299 -11 359 -11 418 43 L418 0 Z M280 81 C205 81 144 135 144 212 C144 289 205 343 280 343 C356 343 418 289 418 212 C418 135 356 81 280 81 L280 81 Z M319 481 L402 607 L290 607 L222 481 L319 481 Z " />
<glyph glyph-name="acircumflex" unicode="&#xe2;" horiz-adv-x="582" d="M218 649 L135 481 L237 481 L287 580 L337 481 L439 481 L356 649 L218 649 Z M418 0 L516 0 L516 424 L418 424 L418 381 C359 435 299 435 264 435 C145 435 46 335 46 212 C46 89 145 -11 264 -11 C299 -11 359 -11 418 43 L418 0 Z M280 81 C205 81 144 135 144 212 C144 289 205 343 280 343 C356 343 418 289 418 212 C418 135 356 81 280 81 L280 81 Z " />
<glyph glyph-name="atilde" unicode="&#xe3;" horiz-adv-x="582" d="M376 481 C396 481 469 485 472 611 L395 611 C395 575 384 565 356 565 C317 565 276 611 208 611 C188 611 115 607 112 481 L189 481 C189 517 200 527 228 527 C269 527 326 483 376 481 L376 481 Z M418 0 L516 0 L516 424 L418 424 L418 381 C359 435 299 435 264 435 C145 435 46 335 46 212 C46 89 145 -11 264 -11 C299 -11 359 -11 418 43 L418 0 Z M280 81 C205 81 144 135 144 212 C144 289 205 343 280 343 C356 343 418 289 418 212 C418 135 356 81 280 81 L280 81 Z " />
<glyph glyph-name="adieresis" unicode="&#xe4;" horiz-adv-x="582" d="M126 541 C126 507 153 481 186 481 C220 481 247 507 247 541 C247 574 220 601 186 601 C153 601 126 574 126 541 L126 541 Z M303 541 C303 507 330 481 364 481 C397 481 424 507 424 541 C424 574 397 601 364 601 C330 601 303 574 303 541 L303 541 Z M418 0 L516 0 L516 424 L418 424 L418 381 C359 435 299 435 264 435 C145 435 46 335 46 212 C46 89 145 -11 264 -11 C299 -11 359 -11 418 43 L418 0 Z M280 81 C205 81 144 135 144 212 C144 289 205 343 280 343 C356 343 418 289 418 212 C418 135 356 81 280 81 L280 81 Z " />
<glyph glyph-name="aring" unicode="&#xe5;" horiz-adv-x="582" d="M286 726 C218 726 163 672 163 604 C163 536 218 481 286 481 C354 481 409 536 409 604 C409 672 354 726 286 726 L286 726 Z M286 552 C257 552 234 576 234 604 C234 632 257 655 286 655 C314 655 337 632 337 604 C337 576 314 552 286 552 L286 552 Z M418 0 L516 0 L516 424 L418 424 L418 381 C359 435 299 435 264 435 C145 435 46 335 46 212 C46 89 145 -11 264 -11 C299 -11 359 -11 418 43 L418 0 Z M280 81 C205 81 144 135 144 212 C144 289 205 343 280 343 C356 343 418 289 418 212 C418 135 356 81 280 81 L280 81 Z " />
<glyph glyph-name="ae" unicode="&#xe6;" horiz-adv-x="808" d="M393 367 C351 410 290 435 226 435 C150 435 77 398 77 398 L109 316 C150 338 179 343 211 343 C298 343 327 314 327 250 C277 268 227 270 218 270 C132 270 49 232 49 132 C49 46 106 -11 210 -11 C288 -11 343 7 388 61 C428 15 488 -11 558 -11 C643 -11 720 27 720 27 L665 105 C615 81 559 81 559 81 C512 81 453 99 432 170 L770 170 L770 203 C770 356 663 435 552 435 C486 435 431 409 393 367 L393 367 Z M244 81 C216 81 153 81 153 132 C153 188 210 188 244 188 C278 188 335 188 335 132 C335 89 272 81 244 81 L244 81 Z M552 343 C599 343 653 317 671 254 L433 254 C451 317 505 343 552 343 L552 343 Z " />
<glyph glyph-name="ccedilla" unicode="&#xe7;" horiz-adv-x="530" d="M46 212 C46 101 128 9 237 -8 L224 -76 L249 -80 C249 -80 279 -85 279 -110 C279 -130 262 -140 233 -140 C223 -140 214 -139 205 -136 L205 -191 C222 -193 249 -195 263 -195 C284 -195 361 -185 361 -117 C361 -57 302 -48 302 -48 L308 -8 C396 3 469 60 494 150 L390 150 C372 104 326 81 273 81 C204 81 144 136 144 212 C144 288 204 343 273 343 C326 343 372 320 390 274 L494 274 C466 375 378 435 275 435 C147 435 46 335 46 212 L46 212 Z " />
<glyph glyph-name="egrave" unicode="&#xe8;" horiz-adv-x="520" d="M482 203 C482 356 375 435 264 435 C136 435 46 335 46 212 C46 78 142 -11 270 -11 C355 -11 432 27 432 27 L377 105 C327 81 271 81 271 81 C224 81 165 99 144 170 L482 170 L482 203 Z M264 343 C311 343 365 317 383 254 L145 254 C163 317 217 343 264 343 L264 343 Z M313 481 L245 607 L133 607 L216 481 L313 481 Z " />
<glyph glyph-name="eacute" unicode="&#xe9;" horiz-adv-x="520" d="M482 203 C482 356 375 435 264 435 C136 435 46 335 46 212 C46 78 142 -11 270 -11 C355 -11 432 27 432 27 L377 105 C327 81 271 81 271 81 C224 81 165 99 144 170 L482 170 L482 203 Z M264 343 C311 343 365 317 383 254 L145 254 C163 317 217 343 264 343 L264 343 Z M312 481 L395 607 L283 607 L215 481 L312 481 Z " />
<glyph glyph-name="ecircumflex" unicode="&#xea;" horiz-adv-x="520" d="M482 203 C482 356 375 435 264 435 C136 435 46 335 46 212 C46 78 142 -11 270 -11 C355 -11 432 27 432 27 L377 105 C327 81 271 81 271 81 C224 81 165 99 144 170 L482 170 L482 203 Z M264 343 C311 343 365 317 383 254 L145 254 C163 317 217 343 264 343 L264 343 Z M197 649 L114 481 L216 481 L266 580 L316 481 L418 481 L335 649 L197 649 Z " />
<glyph glyph-name="edieresis" unicode="&#xeb;" horiz-adv-x="520" d="M482 203 C482 356 375 435 264 435 C136 435 46 335 46 212 C46 78 142 -11 270 -11 C355 -11 432 27 432 27 L377 105 C327 81 271 81 271 81 C224 81 165 99 144 170 L482 170 L482 203 Z M264 343 C311 343 365 317 383 254 L145 254 C163 317 217 343 264 343 L264 343 Z M118 541 C118 507 145 481 178 481 C212 481 239 507 239 541 C239 574 212 601 178 601 C145 601 118 574 118 541 L118 541 Z M295 541 C295 507 322 481 356 481 C389 481 416 507 416 541 C416 574 389 601 356 601 C322 601 295 574 295 541 L295 541 Z " />
<glyph glyph-name="igrave" unicode="&#xec;" horiz-adv-x="230" d="M66 0 L164 0 L164 424 L66 424 L66 0 Z M163 481 L95 607 L-17 607 L66 481 L163 481 Z " />
<glyph glyph-name="iacute" unicode="&#xed;" horiz-adv-x="230" d="M164 424 L66 424 L66 0 L164 0 L164 424 Z M164 481 L247 607 L135 607 L67 481 L164 481 Z " />
<glyph glyph-name="icircumflex" unicode="&#xee;" horiz-adv-x="230" d="M66 0 L164 0 L164 424 L66 424 L66 0 Z M46 649 L-37 481 L65 481 L115 580 L165 481 L267 481 L184 649 L46 649 Z " />
<glyph glyph-name="idieresis" unicode="&#xef;" horiz-adv-x="230" d="M66 0 L164 0 L164 424 L66 424 L66 0 Z M-26 541 C-26 507 1 481 34 481 C68 481 95 507 95 541 C95 574 68 601 34 601 C1 601 -26 574 -26 541 L-26 541 Z M135 541 C135 507 162 481 196 481 C229 481 256 507 256 541 C256 574 229 601 196 601 C162 601 135 574 135 541 L135 541 Z " />
<glyph glyph-name="eth" unicode="&#xf0;" horiz-adv-x="509" d="M115 451 L172 451 L87 314 C62 274 46 224 46 182 C46 63 136 -11 254 -11 C371 -11 463 60 463 182 C463 287 398 387 247 387 L287 451 L409 451 L409 517 L328 517 L367 578 L251 578 L213 517 L115 517 L115 451 Z M254 81 C191 81 143 124 143 188 C143 248 191 295 254 295 C318 295 366 248 366 188 C366 124 318 81 254 81 L254 81 Z " />
<glyph glyph-name="ntilde" unicode="&#xf1;" horiz-adv-x="521" d="M367 0 L465 0 L465 276 C465 283 465 435 294 435 C288 435 208 435 164 381 L164 424 L66 424 L66 0 L164 0 L164 229 C164 259 187 343 271 343 C363 343 367 268 367 237 L367 0 Z M360 481 C380 481 453 485 456 611 L379 611 C379 575 368 565 340 565 C301 565 260 611 192 611 C172 611 99 607 96 481 L173 481 C173 517 184 527 212 527 C253 527 310 483 360 481 L360 481 Z " />
<glyph glyph-name="ograve" unicode="&#xf2;" horiz-adv-x="556" d="M278 435 C148 435 46 335 46 212 C46 89 148 -11 278 -11 C408 -11 510 89 510 212 C510 335 408 435 278 435 L278 435 Z M278 81 C204 81 144 136 144 212 C144 288 204 343 278 343 C352 343 412 288 412 212 C412 136 352 81 278 81 L278 81 Z M323 481 L255 607 L143 607 L226 481 L323 481 Z " />
<glyph glyph-name="oacute" unicode="&#xf3;" horiz-adv-x="556" d="M278 435 C148 435 46 335 46 212 C46 89 148 -11 278 -11 C408 -11 510 89 510 212 C510 335 408 435 278 435 L278 435 Z M278 81 C204 81 144 136 144 212 C144 288 204 343 278 343 C352 343 412 288 412 212 C412 136 352 81 278 81 L278 81 Z M322 481 L405 607 L293 607 L225 481 L322 481 Z " />
<glyph glyph-name="ocircumflex" unicode="&#xf4;" horiz-adv-x="556" d="M278 435 C148 435 46 335 46 212 C46 89 148 -11 278 -11 C408 -11 510 89 510 212 C510 335 408 435 278 435 L278 435 Z M278 81 C204 81 144 136 144 212 C144 288 204 343 278 343 C352 343 412 288 412 212 C412 136 352 81 278 81 L278 81 Z M209 649 L126 481 L228 481 L278 580 L328 481 L430 481 L347 649 L209 649 Z " />
<glyph glyph-name="otilde" unicode="&#xf5;" horiz-adv-x="556" d="M278 435 C148 435 46 335 46 212 C46 89 148 -11 278 -11 C408 -11 510 89 510 212 C510 335 408 435 278 435 L278 435 Z M278 81 C204 81 144 136 144 212 C144 288 204 343 278 343 C352 343 412 288 412 212 C412 136 352 81 278 81 L278 81 Z M361 481 C381 481 454 485 457 611 L380 611 C380 575 369 565 341 565 C302 565 261 611 193 611 C173 611 100 607 97 481 L174 481 C174 517 185 527 213 527 C254 527 311 483 361 481 L361 481 Z " />
<glyph glyph-name="odieresis" unicode="&#xf6;" horiz-adv-x="556" d="M278 435 C148 435 46 335 46 212 C46 89 148 -11 278 -11 C408 -11 510 89 510 212 C510 335 408 435 278 435 L278 435 Z M278 81 C204 81 144 136 144 212 C144 288 204 343 278 343 C352 343 412 288 412 212 C412 136 352 81 278 81 L278 81 Z M129 541 C129 507 156 481 189 481 C223 481 250 507 250 541 C250 574 223 601 189 601 C156 601 129 574 129 541 L129 541 Z M306 541 C306 507 333 481 367 481 C400 481 427 507 427 541 C427 574 400 601 367 601 C333 601 306 574 306 541 L306 541 Z " />
<glyph glyph-name="divide" unicode="&#xf7;" horiz-adv-x="416" d="M66 138 L350 138 L350 230 L66 230 L66 138 Z M159 37 C159 10 181 -11 208 -11 C235 -11 257 10 257 37 C257 64 235 87 208 87 C181 87 159 64 159 37 L159 37 Z M159 331 C159 304 181 281 208 281 C235 281 257 304 257 331 C257 358 235 380 208 380 C181 380 159 358 159 331 L159 331 Z " />
<glyph glyph-name="oslash" unicode="&#xf8;" horiz-adv-x="556" d="M101 -95 L200 -95 L235 -7 C249 -10 263 -11 278 -11 C408 -11 510 89 510 212 C510 292 467 362 401 401 L447 516 L348 516 L314 432 C302 434 290 435 278 435 C148 435 46 335 46 212 C46 134 87 65 150 25 L101 -95 Z M278 81 L271 81 L365 313 C393 289 412 254 412 212 C412 136 352 81 278 81 L278 81 Z M144 212 C144 288 204 343 278 343 L186 115 C160 138 144 172 144 212 L144 212 Z " />
<glyph glyph-name="ugrave" unicode="&#xf9;" horiz-adv-x="522" d="M261 -11 C446 -11 461 139 461 191 L461 424 L363 424 L363 187 C363 156 352 81 261 81 C170 81 159 156 159 187 L159 424 L61 424 L61 191 C61 139 76 -11 261 -11 L261 -11 Z M314 481 L246 607 L134 607 L217 481 L314 481 Z " />
<glyph glyph-name="uacute" unicode="&#xfa;" horiz-adv-x="522" d="M261 -11 C446 -11 461 139 461 191 L461 424 L363 424 L363 187 C363 156 352 81 261 81 C170 81 159 156 159 187 L159 424 L61 424 L61 191 C61 139 76 -11 261 -11 L261 -11 Z M307 481 L390 607 L278 607 L210 481 L307 481 Z " />
<glyph glyph-name="ucircumflex" unicode="&#xfb;" horiz-adv-x="522" d="M261 -11 C446 -11 461 139 461 191 L461 424 L363 424 L363 187 C363 156 352 81 261 81 C170 81 159 156 159 187 L159 424 L61 424 L61 191 C61 139 76 -11 261 -11 L261 -11 Z M192 649 L109 481 L211 481 L261 580 L311 481 L413 481 L330 649 L192 649 Z " />
<glyph glyph-name="udieresis" unicode="&#xfc;" horiz-adv-x="522" d="M261 -11 C446 -11 461 139 461 191 L461 424 L363 424 L363 187 C363 156 352 81 261 81 C170 81 159 156 159 187 L159 424 L61 424 L61 191 C61 139 76 -11 261 -11 L261 -11 Z M113 541 C113 507 140 481 173 481 C207 481 234 507 234 541 C234 574 207 601 173 601 C140 601 113 574 113 541 L113 541 Z M290 541 C290 507 317 481 351 481 C384 481 411 507 411 541 C411 574 384 601 351 601 C317 601 290 574 290 541 L290 541 Z " />
<glyph glyph-name="yacute" unicode="&#xfd;" horiz-adv-x="504" d="M478 424 L371 424 L252 109 L133 424 L26 424 L201 -21 C184 -79 142 -87 91 -87 C79 -87 69 -87 61 -85 L61 -174 C71 -175 86 -175 114 -175 C174 -175 247 -158 292 -49 L478 424 Z M217 481 L285 607 L397 607 L314 481 L217 481 Z " />
<glyph glyph-name="thorn" unicode="&#xfe;" horiz-adv-x="582" d="M164 43 C223 -11 283 -11 318 -11 C437 -11 536 89 536 212 C536 335 437 435 318 435 C283 435 223 435 164 381 L164 599 L66 599 L66 -175 L164 -175 L164 43 Z M302 81 C226 81 164 135 164 212 C164 289 226 343 302 343 C377 343 438 289 438 212 C438 135 377 81 302 81 L302 81 Z " />
<glyph glyph-name="ydieresis" unicode="&#xff;" horiz-adv-x="504" d="M478 424 L371 424 L252 109 L133 424 L26 424 L201 -21 C184 -79 142 -87 91 -87 C79 -87 69 -87 61 -85 L61 -174 C71 -175 86 -175 114 -175 C174 -175 247 -158 292 -49 L478 424 Z M105 541 C105 574 132 601 165 601 C199 601 226 574 226 541 C226 507 199 481 165 481 C132 481 105 507 105 541 L105 541 Z M282 541 C282 574 309 601 343 601 C376 601 403 574 403 541 C403 507 376 481 343 481 C309 481 282 507 282 541 L282 541 Z " />
<glyph glyph-name="Amacron" unicode="&#x100;" horiz-adv-x="612" d="M167 630 L445 630 L445 719 L167 719 L167 630 Z M235 579 L24 0 L130 0 L167 103 L444 103 L482 0 L588 0 L377 579 L235 579 Z M306 483 L411 194 L200 194 L306 483 Z " />
<glyph glyph-name="amacron" unicode="&#x101;" horiz-adv-x="582" d="M418 0 L516 0 L516 424 L418 424 L418 381 C359 435 299 435 264 435 C145 435 46 335 46 212 C46 89 145 -11 264 -11 C299 -11 359 -11 418 43 L418 0 Z M280 81 C205 81 144 135 144 212 C144 289 205 343 280 343 C356 343 418 289 418 212 C418 135 356 81 280 81 L280 81 Z M143 481 L421 481 L421 570 L143 570 L143 481 Z " />
<glyph glyph-name="Abreve" unicode="&#x102;" horiz-adv-x="612" d="M235 579 L24 0 L130 0 L167 103 L444 103 L482 0 L588 0 L377 579 L235 579 Z M306 483 L411 194 L200 194 L306 483 Z M306 630 C414 630 483 683 491 779 L398 779 C389 723 345 710 306 710 C267 710 223 723 214 779 L121 779 C129 683 198 630 306 630 L306 630 Z " />
<glyph glyph-name="abreve" unicode="&#x103;" horiz-adv-x="582" d="M418 0 L516 0 L516 424 L418 424 L418 381 C359 435 299 435 264 435 C145 435 46 335 46 212 C46 89 145 -11 264 -11 C299 -11 359 -11 418 43 L418 0 Z M280 81 C205 81 144 135 144 212 C144 289 205 343 280 343 C356 343 418 289 418 212 C418 135 356 81 280 81 L280 81 Z M295 481 C403 481 472 534 480 630 L387 630 C378 574 334 561 295 561 C256 561 212 574 203 630 L110 630 C118 534 187 481 295 481 L295 481 Z " />
<glyph glyph-name="Aogonek" unicode="&#x104;" horiz-adv-x="612" d="M235 579 L24 0 L130 0 L167 103 L444 103 L469 35 C469 34 402 19 402 -41 C402 -109 479 -119 500 -119 C514 -119 541 -117 558 -115 L558 -60 C549 -63 540 -64 530 -64 C501 -64 484 -54 484 -34 C484 -9 514 -4 514 -4 L539 0 L588 0 L377 579 L235 579 Z M306 483 L411 194 L200 194 L306 483 Z " />
<glyph glyph-name="aogonek" unicode="&#x105;" horiz-adv-x="582" d="M418 -1 C418 -1 351 -16 351 -76 C351 -144 428 -154 449 -154 C463 -154 490 -152 507 -150 L507 -95 C498 -98 489 -99 479 -99 C450 -99 433 -89 433 -69 C433 -44 463 -35 488 -35 L516 -35 L516 424 L418 424 L418 381 C359 435 299 435 264 435 C145 435 46 335 46 212 C46 89 145 -11 264 -11 C299 -11 359 -11 418 43 L418 -1 Z M280 81 C205 81 144 135 144 212 C144 289 205 343 280 343 C356 343 418 289 418 212 C418 135 356 81 280 81 L280 81 Z " />
<glyph glyph-name="Cacute" unicode="&#x106;" horiz-adv-x="697" d="M363 -11 C503 -11 621 79 659 203 L549 203 C517 130 446 81 363 81 C250 81 154 175 154 289 C154 407 250 497 363 497 C446 497 517 448 549 375 L659 375 C621 499 503 589 363 589 C192 589 56 455 56 289 C56 123 192 -11 363 -11 L363 -11 Z M406 630 L489 756 L377 756 L309 630 L406 630 Z " />
<glyph glyph-name="cacute" unicode="&#x107;" horiz-adv-x="530" d="M46 212 C46 89 147 -11 275 -11 C378 -11 466 49 494 150 L390 150 C372 104 326 81 273 81 C204 81 144 136 144 212 C144 288 204 343 273 343 C326 343 372 320 390 274 L494 274 C466 375 378 435 275 435 C147 435 46 335 46 212 L46 212 Z M325 497 L408 623 L296 623 L228 497 L325 497 Z " />
<glyph glyph-name="Ccircumflex" unicode="&#x108;" horiz-adv-x="697" d="M363 -11 C503 -11 621 79 659 203 L549 203 C517 130 446 81 363 81 C250 81 154 175 154 289 C154 407 250 497 363 497 C446 497 517 448 549 375 L659 375 C621 499 503 589 363 589 C192 589 56 455 56 289 C56 123 192 -11 363 -11 L363 -11 Z M295 798 L212 630 L314 630 L364 729 L414 630 L516 630 L433 798 L295 798 Z " />
<glyph glyph-name="ccircumflex" unicode="&#x109;" horiz-adv-x="530" d="M46 212 C46 89 147 -11 275 -11 C378 -11 466 49 494 150 L390 150 C372 104 326 81 273 81 C204 81 144 136 144 212 C144 288 204 343 273 343 C326 343 372 320 390 274 L494 274 C466 375 378 435 275 435 C147 435 46 335 46 212 L46 212 Z M206 649 L123 481 L225 481 L275 580 L325 481 L427 481 L344 649 L206 649 Z " />
<glyph glyph-name="Cdotaccent" unicode="&#x10a;" horiz-adv-x="697" d="M363 -11 C503 -11 621 79 659 203 L549 203 C517 130 446 81 363 81 C250 81 154 175 154 289 C154 407 250 497 363 497 C446 497 517 448 549 375 L659 375 C621 499 503 589 363 589 C192 589 56 455 56 289 C56 123 192 -11 363 -11 L363 -11 Z M301 690 C301 656 328 630 362 630 C395 630 422 656 422 690 C422 723 395 750 362 750 C328 750 301 723 301 690 L301 690 Z " />
<glyph glyph-name="cdotaccent" unicode="&#x10b;" horiz-adv-x="530" d="M46 212 C46 89 147 -11 275 -11 C378 -11 466 49 494 150 L390 150 C372 104 326 81 273 81 C204 81 144 136 144 212 C144 288 204 343 273 343 C326 343 372 320 390 274 L494 274 C466 375 378 435 275 435 C147 435 46 335 46 212 L46 212 Z M213 541 C213 507 240 481 274 481 C307 481 334 507 334 541 C334 574 307 601 274 601 C240 601 213 574 213 541 L213 541 Z " />
<glyph glyph-name="Ccaron" unicode="&#x10c;" horiz-adv-x="697" d="M363 -11 C503 -11 621 79 659 203 L549 203 C517 130 446 81 363 81 C250 81 154 175 154 289 C154 407 250 497 363 497 C446 497 517 448 549 375 L659 375 C621 499 503 589 363 589 C192 589 56 455 56 289 C56 123 192 -11 363 -11 L363 -11 Z M433 630 L516 798 L414 798 L364 699 L314 798 L212 798 L295 630 L433 630 Z " />
<glyph glyph-name="ccaron" unicode="&#x10d;" horiz-adv-x="530" d="M46 212 C46 89 147 -11 275 -11 C378 -11 466 49 494 150 L390 150 C372 104 326 81 273 81 C204 81 144 136 144 212 C144 288 204 343 273 343 C326 343 372 320 390 274 L494 274 C466 375 378 435 275 435 C147 435 46 335 46 212 L46 212 Z M344 481 L427 649 L325 649 L275 550 L225 649 L123 649 L206 481 L344 481 Z " />
<glyph glyph-name="Dcaron" unicode="&#x10e;" horiz-adv-x="618" d="M66 0 L286 0 C458 0 572 124 572 289 C572 454 458 579 286 579 L66 579 L66 0 Z M292 487 C406 487 474 405 474 289 C474 173 406 92 292 92 L164 92 L164 487 L292 487 Z M329 630 L412 798 L310 798 L260 699 L210 798 L108 798 L191 630 L329 630 Z " />
<glyph glyph-name="dcaron" unicode="&#x10f;" horiz-adv-x="797" d="M418 0 L516 0 L516 598 L418 598 L418 381 C359 435 299 435 264 435 C145 435 46 335 46 212 C46 89 145 -11 264 -11 C299 -11 359 -11 418 43 L418 0 Z M280 81 C205 81 144 135 144 212 C144 289 205 343 280 343 C356 343 418 289 418 212 C418 135 356 81 280 81 L280 81 Z M726 466 L789 598 L693 598 L633 466 L726 466 Z " />
<glyph glyph-name="Dcroat" unicode="&#x110;" horiz-adv-x="637" d="M305 579 L85 579 L85 334 L18 334 L18 242 L85 242 L85 0 L305 0 C477 0 591 124 591 289 C591 454 477 579 305 579 L305 579 Z M311 92 L183 92 L183 242 L289 242 L289 334 L183 334 L183 487 L311 487 C425 487 493 405 493 289 C493 173 425 92 311 92 L311 92 Z " />
<glyph glyph-name="dcroat" unicode="&#x111;" horiz-adv-x="593" d="M352 481 L418 481 L418 381 C359 435 299 435 264 435 C145 435 46 335 46 212 C46 89 145 -11 264 -11 C299 -11 359 -11 418 43 L418 0 L516 0 L516 481 L575 481 L575 554 L516 554 L516 598 L418 598 L418 554 L352 554 L352 481 Z M280 81 C205 81 144 135 144 212 C144 289 205 343 280 343 C356 343 418 289 418 212 C418 135 356 81 280 81 L280 81 Z " />
<glyph glyph-name="Emacron" unicode="&#x112;" horiz-adv-x="504" d="M164 92 L164 237 L432 237 L432 329 L164 329 L164 487 L454 487 L454 579 L66 579 L66 0 L454 0 L454 92 L164 92 Z M125 630 L403 630 L403 719 L125 719 L125 630 Z " />
<glyph glyph-name="emacron" unicode="&#x113;" horiz-adv-x="520" d="M482 203 C482 356 375 435 264 435 C136 435 46 335 46 212 C46 78 142 -11 270 -11 C355 -11 432 27 432 27 L377 105 C327 81 271 81 271 81 C224 81 165 99 144 170 L482 170 L482 203 Z M264 343 C311 343 365 317 383 254 L145 254 C163 317 217 343 264 343 L264 343 Z M121 481 L399 481 L399 570 L121 570 L121 481 Z " />
<glyph glyph-name="Edotaccent" unicode="&#x116;" horiz-adv-x="504" d="M164 92 L164 237 L432 237 L432 329 L164 329 L164 487 L454 487 L454 579 L66 579 L66 0 L454 0 L454 92 L164 92 Z M198 690 C198 656 225 630 259 630 C292 630 319 656 319 690 C319 723 292 750 259 750 C225 750 198 723 198 690 L198 690 Z " />
<glyph glyph-name="edotaccent" unicode="&#x117;" horiz-adv-x="520" d="M482 203 C482 356 375 435 264 435 C136 435 46 335 46 212 C46 78 142 -11 270 -11 C355 -11 432 27 432 27 L377 105 C327 81 271 81 271 81 C224 81 165 99 144 170 L482 170 L482 203 Z M264 343 C311 343 365 317 383 254 L145 254 C163 317 217 343 264 343 L264 343 Z M203 541 C203 507 230 481 264 481 C297 481 324 507 324 541 C324 574 297 601 264 601 C230 601 203 574 203 541 L203 541 Z " />
<glyph glyph-name="Eogonek" unicode="&#x118;" horiz-adv-x="504" d="M164 92 L164 237 L432 237 L432 329 L164 329 L164 487 L454 487 L454 579 L66 579 L66 0 L282 0 C274 -10 269 -24 269 -41 C269 -109 346 -119 367 -119 C381 -119 408 -117 425 -115 L425 -60 C416 -63 407 -64 397 -64 C368 -64 351 -54 351 -34 C351 -9 381 -4 406 0 L454 0 L454 92 L164 92 Z " />
<glyph glyph-name="eogonek" unicode="&#x119;" horiz-adv-x="520" d="M482 203 C482 356 375 435 264 435 C136 435 46 335 46 212 C46 98 115 17 214 -5 C207 -15 203 -27 203 -43 C203 -111 280 -121 301 -121 C315 -121 342 -119 359 -117 L359 -62 C350 -65 341 -66 331 -66 C302 -66 285 -56 285 -36 C285 -19 296 -12 305 -9 C374 -1 432 27 432 27 L377 105 C327 81 271 81 271 81 C224 81 165 99 144 170 L482 170 L482 203 Z M264 343 C311 343 365 317 383 254 L145 254 C163 317 217 343 264 343 L264 343 Z " />
<glyph glyph-name="Ecaron" unicode="&#x11a;" horiz-adv-x="504" d="M164 92 L164 237 L432 237 L432 329 L164 329 L164 487 L454 487 L454 579 L66 579 L66 0 L454 0 L454 92 L164 92 Z M329 630 L412 798 L310 798 L260 699 L210 798 L108 798 L191 630 L329 630 Z " />
<glyph glyph-name="ecaron" unicode="&#x11b;" horiz-adv-x="520" d="M482 203 C482 356 375 435 264 435 C136 435 46 335 46 212 C46 78 142 -11 270 -11 C355 -11 432 27 432 27 L377 105 C327 81 271 81 271 81 C224 81 165 99 144 170 L482 170 L482 203 Z M264 343 C311 343 365 317 383 254 L145 254 C163 317 217 343 264 343 L264 343 Z M332 481 L415 649 L313 649 L263 550 L213 649 L111 649 L194 481 L332 481 Z " />
<glyph glyph-name="Gcircumflex" unicode="&#x11c;" horiz-adv-x="701" d="M410 324 L410 234 L551 234 C551 234 535 81 363 81 C248 81 154 175 154 289 C154 407 248 497 363 497 C440 497 511 470 554 407 L629 459 C604 495 523 589 363 589 C188 589 56 455 56 289 C56 123 191 -11 363 -11 C390 -11 611 -2 651 231 L651 324 L410 324 Z M293 798 L210 630 L312 630 L362 729 L412 630 L514 630 L431 798 L293 798 Z " />
<glyph glyph-name="gcircumflex" unicode="&#x11d;" horiz-adv-x="582" d="M418 10 C418 -84 332 -107 284 -107 C239 -107 195 -99 151 -72 L106 -147 C137 -168 202 -199 283 -199 C411 -199 516 -115 516 8 L516 424 L418 424 L418 381 C359 435 299 435 264 435 C145 435 46 335 46 212 C46 89 145 -11 264 -11 C299 -11 359 -11 418 43 L418 10 Z M280 81 C205 81 144 135 144 212 C144 289 205 343 280 343 C356 343 418 289 418 212 C418 135 356 81 280 81 L280 81 Z M213 649 L130 481 L232 481 L282 580 L332 481 L434 481 L351 649 L213 649 Z " />
<glyph glyph-name="Gbreve" unicode="&#x11e;" horiz-adv-x="701" d="M410 324 L410 234 L551 234 C551 234 535 81 363 81 C248 81 154 175 154 289 C154 407 248 497 363 497 C440 497 511 470 554 407 L629 459 C604 495 523 589 363 589 C188 589 56 455 56 289 C56 123 191 -11 363 -11 C390 -11 611 -2 651 231 L651 324 L410 324 Z M362 630 C470 630 539 683 547 779 L454 779 C445 723 401 710 362 710 C323 710 279 723 270 779 L177 779 C185 683 254 630 362 630 L362 630 Z " />
<glyph glyph-name="gbreve" unicode="&#x11f;" horiz-adv-x="582" d="M418 10 C418 -84 332 -107 284 -107 C239 -107 195 -99 151 -72 L106 -147 C137 -168 202 -199 283 -199 C411 -199 516 -115 516 8 L516 424 L418 424 L418 381 C359 435 299 435 264 435 C145 435 46 335 46 212 C46 89 145 -11 264 -11 C299 -11 359 -11 418 43 L418 10 Z M280 81 C205 81 144 135 144 212 C144 289 205 343 280 343 C356 343 418 289 418 212 C418 135 356 81 280 81 L280 81 Z M293 481 C401 481 470 534 478 630 L385 630 C376 574 332 561 293 561 C254 561 210 574 201 630 L108 630 C116 534 185 481 293 481 L293 481 Z " />
<glyph glyph-name="Gdotaccent" unicode="&#x120;" horiz-adv-x="701" d="M410 324 L410 234 L551 234 C551 234 535 81 363 81 C248 81 154 175 154 289 C154 407 248 497 363 497 C440 497 511 470 554 407 L629 459 C604 495 523 589 363 589 C188 589 56 455 56 289 C56 123 191 -11 363 -11 C390 -11 611 -2 651 231 L651 324 L410 324 Z M303 690 C303 656 330 630 364 630 C397 630 424 656 424 690 C424 723 397 750 364 750 C330 750 303 723 303 690 L303 690 Z " />
<glyph glyph-name="gdotaccent" unicode="&#x121;" horiz-adv-x="582" d="M418 10 C418 -84 332 -107 284 -107 C239 -107 195 -99 151 -72 L106 -147 C137 -168 202 -199 283 -199 C411 -199 516 -115 516 8 L516 424 L418 424 L418 381 C359 435 299 435 264 435 C145 435 46 335 46 212 C46 89 145 -11 264 -11 C299 -11 359 -11 418 43 L418 10 Z M280 81 C205 81 144 135 144 212 C144 289 205 343 280 343 C356 343 418 289 418 212 C418 135 356 81 280 81 L280 81 Z M216 541 C216 507 243 481 277 481 C310 481 337 507 337 541 C337 574 310 601 277 601 C243 601 216 574 216 541 L216 541 Z " />
<glyph glyph-name="uni0122" unicode="&#x122;" horiz-adv-x="701" d="M410 324 L410 234 L551 234 C551 234 535 81 363 81 C248 81 154 175 154 289 C154 407 248 497 363 497 C440 497 511 470 554 407 L629 459 C604 495 523 589 363 589 C188 589 56 455 56 289 C56 123 191 -11 363 -11 C390 -11 611 -2 651 231 L651 324 L410 324 Z M353 -170 L411 -53 L313 -53 L270 -170 L353 -170 Z " />
<glyph glyph-name="uni0123" unicode="&#x123;" horiz-adv-x="582" d="M418 10 C418 -84 332 -107 284 -107 C239 -107 195 -99 151 -72 L106 -147 C137 -168 202 -199 283 -199 C411 -199 516 -115 516 8 L516 424 L418 424 L418 381 C359 435 299 435 264 435 C145 435 46 335 46 212 C46 89 145 -11 264 -11 C299 -11 359 -11 418 43 L418 10 Z M280 81 C205 81 144 135 144 212 C144 289 205 343 280 343 C356 343 418 289 418 212 C418 135 356 81 280 81 L280 81 Z M301 607 L218 481 L330 481 L398 607 L301 607 Z " />
<glyph glyph-name="Hcircumflex" unicode="&#x124;" horiz-adv-x="607" d="M443 0 L541 0 L541 579 L443 579 L443 306 L164 306 L164 579 L66 579 L66 0 L164 0 L164 214 L443 214 L443 0 Z M234 798 L151 630 L253 630 L303 729 L353 630 L455 630 L372 798 L234 798 Z " />
<glyph glyph-name="hcircumflex" unicode="&#x125;" horiz-adv-x="521" d="M367 0 L465 0 L465 276 C465 283 465 435 294 435 C288 435 208 435 164 381 L164 598 L66 598 L66 0 L164 0 L164 229 C164 259 187 343 271 343 C363 343 367 268 367 237 L367 0 Z M149 798 L66 630 L168 630 L218 729 L268 630 L370 630 L287 798 L149 798 Z " />
<glyph glyph-name="Hbar" unicode="&#x126;" horiz-adv-x="627" d="M28 428 L76 428 L76 0 L174 0 L174 214 L453 214 L453 0 L551 0 L551 428 L599 428 L599 520 L551 520 L551 579 L453 579 L453 520 L174 520 L174 579 L76 579 L76 520 L28 520 L28 428 Z M174 306 L174 428 L453 428 L453 306 L174 306 Z " />
<glyph glyph-name="hbar" unicode="&#x127;" horiz-adv-x="532" d="M77 481 L77 0 L175 0 L175 229 C175 259 198 343 282 343 C374 343 378 268 378 237 L378 0 L476 0 L476 276 C476 283 476 435 305 435 C299 435 219 435 175 381 L175 481 L241 481 L241 554 L175 554 L175 598 L77 598 L77 554 L18 554 L18 481 L77 481 Z " />
<glyph glyph-name="Itilde" unicode="&#x128;" horiz-adv-x="230" d="M66 0 L164 0 L164 579 L66 579 L66 0 Z M199 630 C219 630 292 634 295 760 L218 760 C218 724 207 714 179 714 C140 714 99 760 31 760 C11 760 -62 756 -65 630 L12 630 C12 666 23 676 51 676 C92 676 149 632 199 630 L199 630 Z " />
<glyph glyph-name="itilde" unicode="&#x129;" horiz-adv-x="230" d="M66 0 L164 0 L164 424 L66 424 L66 0 Z M199 481 C219 481 292 485 295 611 L218 611 C218 575 207 565 179 565 C140 565 99 611 31 611 C11 611 -62 607 -65 481 L12 481 C12 517 23 527 51 527 C92 527 149 483 199 481 L199 481 Z " />
<glyph glyph-name="Imacron" unicode="&#x12a;" horiz-adv-x="230" d="M66 0 L164 0 L164 579 L66 579 L66 0 Z M-3 630 L233 630 L233 719 L-3 719 L-3 630 Z " />
<glyph glyph-name="imacron" unicode="&#x12b;" horiz-adv-x="230" d="M66 0 L164 0 L164 424 L66 424 L66 0 Z M-3 481 L233 481 L233 570 L-3 570 L-3 481 Z " />
<glyph glyph-name="Iogonek" unicode="&#x12e;" horiz-adv-x="241" d="M77 579 L77 34 C77 34 10 19 10 -41 C10 -109 87 -119 108 -119 C122 -119 149 -117 166 -115 L166 -60 C157 -63 148 -64 138 -64 C109 -64 92 -54 92 -34 C92 -9 124 0 147 0 L175 0 L175 579 L77 579 Z " />
<glyph glyph-name="iogonek" unicode="&#x12f;" horiz-adv-x="230" d="M58 520 C58 489 84 463 115 463 C147 463 174 489 174 520 C174 552 147 579 115 579 C84 579 58 552 58 520 L58 520 Z M66 34 C66 34 -1 19 -1 -41 C-1 -109 76 -119 97 -119 C111 -119 138 -117 155 -115 L155 -60 C146 -63 137 -64 127 -64 C98 -64 81 -54 81 -34 C81 -9 113 0 136 0 L164 0 L164 424 L66 424 L66 34 Z " />
<glyph glyph-name="Idotaccent" unicode="&#x130;" horiz-adv-x="230" d="M66 0 L164 0 L164 579 L66 579 L66 0 Z M58 687 C58 656 84 630 115 630 C147 630 174 656 174 687 C174 719 147 746 115 746 C84 746 58 719 58 687 L58 687 Z " />
<glyph glyph-name="dotlessi" unicode="&#x131;" horiz-adv-x="230" d="M66 0 L164 0 L164 424 L66 424 L66 0 Z " />
<glyph glyph-name="Jcircumflex" unicode="&#x134;" horiz-adv-x="456" d="M198 81 C159 81 119 103 96 126 L16 78 C38 47 94 -11 192 -11 C314 -11 395 62 395 163 L395 579 L297 579 L297 162 C297 136 269 81 198 81 L198 81 Z M173 798 L90 630 L192 630 L242 729 L292 630 L394 630 L311 798 L173 798 Z " />
<glyph glyph-name="jcircumflex" unicode="&#x135;" horiz-adv-x="230" d="M66 -11 C66 -11 62 -83 -12 -83 L-48 -80 L-48 -172 C-31 -174 -2 -175 22 -175 C44 -175 164 -175 164 -12 L164 424 L66 424 L66 -11 Z M46 649 L-37 481 L65 481 L115 580 L165 481 L267 481 L184 649 L46 649 Z " />
<glyph glyph-name="uni0136" unicode="&#x136;" horiz-adv-x="552" d="M541 0 L264 295 L513 579 L383 579 L163 328 L163 579 L66 579 L66 0 L163 0 L163 258 L406 0 L541 0 Z M282 -170 L340 -53 L242 -53 L199 -170 L282 -170 Z " />
<glyph glyph-name="uni0137" unicode="&#x137;" horiz-adv-x="493" d="M473 0 L268 217 L453 424 L323 424 L164 245 L164 599 L66 599 L66 0 L164 0 L164 186 L340 0 L473 0 Z M261 -170 L319 -53 L221 -53 L178 -170 L261 -170 Z " />
<glyph glyph-name="kgreenlandic" unicode="&#x138;" horiz-adv-x="493" d="M473 0 L268 217 L453 424 L323 424 L164 245 L164 424 L66 424 L66 0 L164 0 L164 186 L340 0 L473 0 Z " />
<glyph glyph-name="Lacute" unicode="&#x139;" horiz-adv-x="484" d="M164 579 L66 579 L66 0 L453 0 L453 92 L164 92 L164 579 Z M165 630 L248 756 L136 756 L68 630 L165 630 Z " />
<glyph glyph-name="lacute" unicode="&#x13a;" horiz-adv-x="230" d="M164 579 L66 579 L66 0 L164 0 L164 579 Z M164 630 L247 756 L135 756 L67 630 L164 630 Z " />
<glyph glyph-name="uni013B" unicode="&#x13b;" horiz-adv-x="484" d="M164 579 L66 579 L66 0 L453 0 L453 92 L164 92 L164 579 Z M259 -170 L317 -53 L219 -53 L176 -170 L259 -170 Z " />
<glyph glyph-name="uni013C" unicode="&#x13c;" horiz-adv-x="230" d="M66 0 L164 0 L164 579 L66 579 L66 0 Z M105 -170 L163 -53 L65 -53 L22 -170 L105 -170 Z " />
<glyph glyph-name="Lcaron" unicode="&#x13d;" horiz-adv-x="484" d="M164 579 L66 579 L66 0 L453 0 L453 92 L164 92 L164 579 Z M377 447 L440 579 L344 579 L284 447 L377 447 Z " />
<glyph glyph-name="lcaron" unicode="&#x13e;" horiz-adv-x="445" d="M66 0 L164 0 L164 579 L66 579 L66 0 Z M374 447 L437 579 L341 579 L281 447 L374 447 Z " />
<glyph glyph-name="Lslash" unicode="&#x141;" horiz-adv-x="536" d="M28 337 L28 250 L118 268 L118 0 L505 0 L505 92 L216 92 L216 287 L307 306 L307 393 L216 374 L216 579 L118 579 L118 355 L28 337 Z " />
<glyph glyph-name="lslash" unicode="&#x142;" horiz-adv-x="334" d="M306 306 L306 393 L216 375 L216 579 L118 579 L118 355 L28 337 L28 250 L118 268 L118 0 L216 0 L216 288 L306 306 Z " />
<glyph glyph-name="Nacute" unicode="&#x143;" horiz-adv-x="634" d="M470 170 L160 579 L66 579 L66 0 L164 0 L164 409 L476 0 L568 0 L568 579 L470 579 L470 170 Z M373 630 L456 756 L344 756 L276 630 L373 630 Z " />
<glyph glyph-name="nacute" unicode="&#x144;" horiz-adv-x="521" d="M367 0 L465 0 L465 276 C465 283 465 435 294 435 C288 435 208 435 164 381 L164 424 L66 424 L66 0 L164 0 L164 229 C164 259 187 343 271 343 C363 343 367 268 367 237 L367 0 Z M319 497 L402 623 L290 623 L222 497 L319 497 Z " />
<glyph glyph-name="uni0145" unicode="&#x145;" horiz-adv-x="634" d="M470 170 L160 579 L66 579 L66 0 L164 0 L164 409 L476 0 L568 0 L568 579 L470 579 L470 170 Z M321 -170 L379 -53 L281 -53 L238 -170 L321 -170 Z " />
<glyph glyph-name="uni0146" unicode="&#x146;" horiz-adv-x="521" d="M367 0 L465 0 L465 276 C465 283 465 435 294 435 C288 435 208 435 164 381 L164 424 L66 424 L66 0 L164 0 L164 229 C164 259 187 343 271 343 C363 343 367 268 367 237 L367 0 Z M267 -170 L325 -53 L227 -53 L184 -170 L267 -170 Z " />
<glyph glyph-name="Ncaron" unicode="&#x147;" horiz-adv-x="634" d="M470 170 L160 579 L66 579 L66 0 L164 0 L164 409 L476 0 L568 0 L568 579 L470 579 L470 170 Z M386 630 L469 798 L367 798 L317 699 L267 798 L165 798 L248 630 L386 630 Z " />
<glyph glyph-name="ncaron" unicode="&#x148;" horiz-adv-x="521" d="M367 0 L465 0 L465 276 C465 283 465 435 294 435 C288 435 208 435 164 381 L164 424 L66 424 L66 0 L164 0 L164 229 C164 259 187 343 271 343 C363 343 367 268 367 237 L367 0 Z M348 481 L431 649 L329 649 L279 550 L229 649 L127 649 L210 481 L348 481 Z " />
<glyph glyph-name="Eng" unicode="&#x14a;" horiz-adv-x="634" d="M470 -11 C470 -11 466 -83 392 -83 L356 -80 L356 -172 C373 -174 402 -175 426 -175 C448 -175 568 -175 568 -12 L568 579 L470 579 L470 170 L160 579 L66 579 L66 0 L164 0 L164 409 L470 8 L470 -11 Z " />
<glyph glyph-name="eng" unicode="&#x14b;" horiz-adv-x="521" d="M367 -11 C367 -11 363 -83 289 -83 L253 -80 L253 -172 C270 -174 299 -175 323 -175 C345 -175 465 -175 465 -12 L465 276 C465 283 465 435 294 435 C288 435 208 435 164 381 L164 424 L66 424 L66 0 L164 0 L164 229 C164 259 187 343 271 343 C363 343 367 268 367 237 L367 -11 Z " />
<glyph glyph-name="Omacron" unicode="&#x14c;" horiz-adv-x="724" d="M362 589 C191 589 56 455 56 289 C56 123 191 -11 362 -11 C533 -11 668 123 668 289 C668 455 533 589 362 589 L362 589 Z M362 81 C249 81 154 175 154 289 C154 407 249 497 362 497 C475 497 570 407 570 289 C570 175 475 81 362 81 L362 81 Z M223 630 L501 630 L501 719 L223 719 L223 630 Z " />
<glyph glyph-name="omacron" unicode="&#x14d;" horiz-adv-x="556" d="M278 435 C148 435 46 335 46 212 C46 89 148 -11 278 -11 C408 -11 510 89 510 212 C510 335 408 435 278 435 L278 435 Z M278 81 C204 81 144 136 144 212 C144 288 204 343 278 343 C352 343 412 288 412 212 C412 136 352 81 278 81 L278 81 Z M139 481 L417 481 L417 570 L139 570 L139 481 Z " />
<glyph glyph-name="Ohungarumlaut" unicode="&#x150;" horiz-adv-x="724" d="M362 589 C191 589 56 455 56 289 C56 123 191 -11 362 -11 C533 -11 668 123 668 289 C668 455 533 589 362 589 L362 589 Z M362 81 C249 81 154 175 154 289 C154 407 249 497 362 497 C475 497 570 407 570 289 C570 175 475 81 362 81 L362 81 Z M330 630 L380 749 L275 749 L240 630 L330 630 Z M476 630 L526 749 L421 749 L386 630 L476 630 Z " />
<glyph glyph-name="ohungarumlaut" unicode="&#x151;" horiz-adv-x="556" d="M278 435 C148 435 46 335 46 212 C46 89 148 -11 278 -11 C408 -11 510 89 510 212 C510 335 408 435 278 435 L278 435 Z M278 81 C204 81 144 136 144 212 C144 288 204 343 278 343 C352 343 412 288 412 212 C412 136 352 81 278 81 L278 81 Z M240 481 L290 600 L185 600 L150 481 L240 481 Z M386 481 L436 600 L331 600 L296 481 L386 481 Z " />
<glyph glyph-name="OE" unicode="&#x152;" horiz-adv-x="907" d="M567 92 L567 237 L835 237 L835 329 L567 329 L567 487 L857 487 L857 579 L444 579 C418 585 391 589 363 589 C192 589 56 455 56 289 C56 123 192 -11 363 -11 C391 -11 419 -7 446 0 L857 0 L857 92 L567 92 Z M363 81 C250 81 154 175 154 289 C154 407 250 497 363 497 C402 497 438 486 469 467 L469 110 C438 91 402 81 363 81 L363 81 Z " />
<glyph glyph-name="oe" unicode="&#x153;" horiz-adv-x="886" d="M848 203 C848 356 741 435 630 435 C557 435 497 403 458 352 C416 402 351 435 278 435 C148 435 46 335 46 212 C46 89 148 -11 278 -11 C351 -11 416 21 458 70 C498 19 561 -11 636 -11 C721 -11 798 27 798 27 L743 105 C693 81 637 81 637 81 C590 81 531 99 510 170 L848 170 L848 203 Z M278 81 C204 81 144 136 144 212 C144 288 204 343 278 343 C350 343 409 290 412 217 L412 212 C412 136 352 81 278 81 L278 81 Z M630 343 C677 343 731 317 749 254 L511 254 C529 317 583 343 630 343 L630 343 Z " />
<glyph glyph-name="Racute" unicode="&#x154;" horiz-adv-x="539" d="M515 0 L370 185 C429 204 503 253 503 375 C503 577 301 579 301 579 L66 579 L66 0 L164 0 L164 172 L266 172 L406 0 L515 0 Z M164 487 L295 487 C357 487 405 458 405 375 C405 292 357 264 295 264 L164 264 L164 487 Z M264 630 L347 756 L235 756 L167 630 L264 630 Z " />
<glyph glyph-name="racute" unicode="&#x155;" horiz-adv-x="371" d="M66 0 L164 0 L164 165 C164 232 212 337 319 337 C319 337 326 337 343 334 L343 428 C332 429 320 429 311 429 C294 429 215 429 164 356 L164 424 L66 424 L66 0 Z M174 497 L257 623 L145 623 L77 497 L174 497 Z " />
<glyph glyph-name="uni0156" unicode="&#x156;" horiz-adv-x="539" d="M515 0 L370 185 C429 204 503 253 503 375 C503 577 301 579 301 579 L66 579 L66 0 L164 0 L164 172 L266 172 L406 0 L515 0 Z M164 487 L295 487 C357 487 405 458 405 375 C405 292 357 264 295 264 L164 264 L164 487 Z M270 -170 L328 -53 L230 -53 L187 -170 L270 -170 Z " />
<glyph glyph-name="uni0157" unicode="&#x157;" horiz-adv-x="373" d="M66 0 L164 0 L164 165 C164 232 212 337 319 337 C319 337 326 337 343 334 L343 428 C332 429 320 429 311 429 C294 429 215 429 164 356 L164 424 L66 424 L66 0 Z M151 -170 L209 -53 L111 -53 L68 -170 L151 -170 Z " />
<glyph glyph-name="Rcaron" unicode="&#x158;" horiz-adv-x="539" d="M515 0 L370 185 C429 204 503 253 503 375 C503 577 301 579 301 579 L66 579 L66 0 L164 0 L164 172 L266 172 L406 0 L515 0 Z M164 487 L295 487 C357 487 405 458 405 375 C405 292 357 264 295 264 L164 264 L164 487 Z M324 630 L407 798 L305 798 L255 699 L205 798 L103 798 L186 630 L324 630 Z " />
<glyph glyph-name="rcaron" unicode="&#x159;" horiz-adv-x="373" d="M66 0 L164 0 L164 165 C164 232 212 337 319 337 C319 337 326 337 343 334 L343 428 C332 429 320 429 311 429 C294 429 215 429 164 356 L164 424 L66 424 L66 0 Z M267 481 L343 634 L250 634 L204 544 L159 634 L66 634 L142 481 L267 481 Z " />
<glyph glyph-name="Sacute" unicode="&#x15a;" horiz-adv-x="527" d="M265 -11 C431 -11 481 92 481 148 C481 359 151 295 151 426 C151 465 199 497 247 497 C296 497 353 481 388 441 L459 494 C439 524 381 589 254 589 C92 589 54 487 54 433 C54 220 383 263 383 155 C383 140 364 81 270 81 C192 81 135 123 112 154 L40 97 C68 56 132 -11 265 -11 L265 -11 Z M305 630 L388 756 L276 756 L208 630 L305 630 Z " />
<glyph glyph-name="sacute" unicode="&#x15b;" horiz-adv-x="417" d="M31 73 C54 37 109 -11 208 -11 C325 -11 386 60 386 114 C386 279 141 221 141 305 C141 338 181 346 209 346 C257 346 298 313 298 313 L358 371 C336 397 290 435 210 435 C97 435 43 365 43 306 C43 139 288 188 288 116 C288 77 215 77 199 77 C199 77 129 78 101 118 L31 73 Z M255 497 L338 623 L226 623 L158 497 L255 497 Z " />
<glyph glyph-name="Scircumflex" unicode="&#x15c;" horiz-adv-x="527" d="M265 -11 C431 -11 481 92 481 148 C481 359 151 295 151 426 C151 465 199 497 247 497 C296 497 353 481 388 441 L459 494 C439 524 381 589 254 589 C92 589 54 487 54 433 C54 220 383 263 383 155 C383 140 364 81 270 81 C192 81 135 123 112 154 L40 97 C68 56 132 -11 265 -11 L265 -11 Z M182 798 L99 630 L201 630 L251 729 L301 630 L403 630 L320 798 L182 798 Z " />
<glyph glyph-name="scircumflex" unicode="&#x15d;" horiz-adv-x="417" d="M31 73 C54 37 109 -11 208 -11 C325 -11 386 60 386 114 C386 279 141 221 141 305 C141 338 181 346 209 346 C257 346 298 313 298 313 L358 371 C336 397 290 435 210 435 C97 435 43 365 43 306 C43 139 288 188 288 116 C288 77 215 77 199 77 C199 77 129 78 101 118 L31 73 Z M148 648 L65 480 L167 480 L217 579 L267 480 L369 480 L286 648 L148 648 Z " />
<glyph glyph-name="Scedilla" unicode="&#x15e;" horiz-adv-x="527" d="M265 -11 C431 -11 481 92 481 148 C481 359 151 295 151 426 C151 465 199 497 247 497 C296 497 353 481 388 441 L459 494 C439 524 381 589 254 589 C92 589 54 487 54 433 C54 220 383 263 383 155 C383 140 364 81 270 81 C192 81 135 123 112 154 L40 97 C68 56 132 -11 265 -11 L265 -11 Z M262 -170 L320 -53 L222 -53 L179 -170 L262 -170 Z " />
<glyph glyph-name="scedilla" unicode="&#x15f;" horiz-adv-x="417" d="M31 73 C54 37 109 -11 208 -11 C325 -11 386 60 386 114 C386 279 141 221 141 305 C141 338 181 346 209 346 C257 346 298 313 298 313 L358 371 C336 397 290 435 210 435 C97 435 43 365 43 306 C43 139 288 188 288 116 C288 77 215 77 199 77 C199 77 129 78 101 118 L31 73 Z M210 -170 L268 -53 L170 -53 L127 -170 L210 -170 Z " />
<glyph glyph-name="Scaron" unicode="&#x160;" horiz-adv-x="527" d="M265 -11 C431 -11 481 92 481 148 C481 359 151 295 151 426 C151 465 199 497 247 497 C296 497 353 481 388 441 L459 494 C439 524 381 589 254 589 C92 589 54 487 54 433 C54 220 383 263 383 155 C383 140 364 81 270 81 C192 81 135 123 112 154 L40 97 C68 56 132 -11 265 -11 L265 -11 Z M324 630 L407 798 L305 798 L255 699 L205 798 L103 798 L186 630 L324 630 Z " />
<glyph glyph-name="scaron" unicode="&#x161;" horiz-adv-x="417" d="M31 73 C54 37 109 -11 208 -11 C325 -11 386 60 386 114 C386 279 141 221 141 305 C141 338 181 346 209 346 C257 346 298 313 298 313 L358 371 C336 397 290 435 210 435 C97 435 43 365 43 306 C43 139 288 188 288 116 C288 77 215 77 199 77 C199 77 129 78 101 118 L31 73 Z M282 481 L365 649 L263 649 L213 550 L163 649 L61 649 L144 481 L282 481 Z " />
<glyph glyph-name="uni0162" unicode="&#x162;" horiz-adv-x="554" d="M228 487 L228 0 L326 0 L326 487 L513 487 L513 579 L41 579 L41 487 L228 487 Z M268 -170 L326 -53 L228 -53 L185 -170 L268 -170 Z " />
<glyph glyph-name="uni0163" unicode="&#x163;" horiz-adv-x="381" d="M30 332 L121 332 L121 163 C121 0 241 0 263 0 C305 0 334 3 334 3 L334 88 C321 87 296 87 296 87 C220 87 219 143 219 161 L219 332 L335 332 L335 424 L219 424 L219 598 C183 589 159 580 121 571 L121 424 L30 424 L30 332 Z M229 -170 L287 -53 L189 -53 L146 -170 L229 -170 Z " />
<glyph glyph-name="Tcaron" unicode="&#x164;" horiz-adv-x="554" d="M228 487 L228 0 L326 0 L326 487 L513 487 L513 579 L41 579 L41 487 L228 487 Z M346 630 L429 798 L327 798 L277 699 L227 798 L125 798 L208 630 L346 630 Z " />
<glyph glyph-name="tcaron" unicode="&#x165;" horiz-adv-x="519" d="M460 481 L511 598 L403 598 L365 481 L460 481 Z M30 332 L121 332 L121 163 C121 0 241 0 263 0 C305 0 334 3 334 3 L334 88 C321 87 296 87 296 87 C220 87 219 143 219 161 L219 332 L335 332 L335 424 L219 424 L219 598 C183 589 159 580 121 571 L121 424 L30 424 L30 332 Z " />
<glyph glyph-name="Tbar" unicode="&#x166;" horiz-adv-x="554" d="M112 211 L228 211 L228 0 L326 0 L326 211 L442 211 L442 303 L326 303 L326 487 L513 487 L513 579 L41 579 L41 487 L228 487 L228 303 L112 303 L112 211 Z " />
<glyph glyph-name="tbar" unicode="&#x167;" horiz-adv-x="381" d="M335 200 L335 292 L219 292 L219 402 L335 402 L335 494 L219 494 L219 598 C183 589 159 580 121 571 L121 494 L30 494 L30 402 L121 402 L121 292 L30 292 L30 200 L121 200 L121 163 C121 0 241 0 263 0 C305 0 334 3 334 3 L334 88 C321 87 296 87 296 87 C220 87 219 143 219 161 L219 200 L335 200 Z " />
<glyph glyph-name="Utilde" unicode="&#x168;" horiz-adv-x="592" d="M296 -11 C296 -11 532 -11 532 224 L532 579 L435 579 L435 224 C435 202 429 81 296 81 C163 81 157 202 157 224 L157 579 L60 579 L60 224 C60 -11 296 -11 296 -11 L296 -11 Z M380 630 C330 632 273 676 232 676 C204 676 193 666 193 630 L116 630 C119 756 192 760 212 760 C280 760 321 714 360 714 C388 714 399 724 399 760 L476 760 C473 634 400 630 380 630 L380 630 Z " />
<glyph glyph-name="utilde" unicode="&#x169;" horiz-adv-x="522" d="M261 -11 C446 -11 461 139 461 191 L461 424 L363 424 L363 187 C363 156 352 81 261 81 C170 81 159 156 159 187 L159 424 L61 424 L61 191 C61 139 76 -11 261 -11 L261 -11 Z M347 481 C367 481 440 485 443 611 L366 611 C366 575 355 565 327 565 C288 565 247 611 179 611 C159 611 86 607 83 481 L160 481 C160 517 171 527 199 527 C240 527 297 483 347 481 L347 481 Z " />
<glyph glyph-name="Umacron" unicode="&#x16a;" horiz-adv-x="592" d="M296 -11 C296 -11 532 -11 532 224 L532 579 L435 579 L435 224 C435 202 429 81 296 81 C163 81 157 202 157 224 L157 579 L60 579 L60 224 C60 -11 296 -11 296 -11 L296 -11 Z M158 719 L436 719 L436 630 L158 630 L158 719 Z " />
<glyph glyph-name="umacron" unicode="&#x16b;" horiz-adv-x="522" d="M261 -11 C446 -11 461 139 461 191 L461 424 L363 424 L363 187 C363 156 352 81 261 81 C170 81 159 156 159 187 L159 424 L61 424 L61 191 C61 139 76 -11 261 -11 L261 -11 Z M123 481 L401 481 L401 570 L123 570 L123 481 Z " />
<glyph glyph-name="Ubreve" unicode="&#x16c;" horiz-adv-x="592" d="M296 -11 C296 -11 532 -11 532 224 L532 579 L435 579 L435 224 C435 202 429 81 296 81 C163 81 157 202 157 224 L157 579 L60 579 L60 224 C60 -11 296 -11 296 -11 L296 -11 Z M296 630 C188 630 119 683 111 779 L204 779 C213 723 257 710 296 710 C335 710 379 723 388 779 L481 779 C473 683 404 630 296 630 L296 630 Z " />
<glyph glyph-name="ubreve" unicode="&#x16d;" horiz-adv-x="522" d="M261 -11 C446 -11 461 139 461 191 L461 424 L363 424 L363 187 C363 156 352 81 261 81 C170 81 159 156 159 187 L159 424 L61 424 L61 191 C61 139 76 -11 261 -11 L261 -11 Z M262 481 C370 481 439 534 447 630 L354 630 C345 574 301 561 262 561 C223 561 179 574 170 630 L77 630 C85 534 154 481 262 481 L262 481 Z " />
<glyph glyph-name="Uring" unicode="&#x16e;" horiz-adv-x="592" d="M296 -11 C296 -11 532 -11 532 224 L532 579 L435 579 L435 224 C435 202 429 81 296 81 C163 81 157 202 157 224 L157 579 L60 579 L60 224 C60 -11 296 -11 296 -11 L296 -11 Z M296 875 C364 875 419 821 419 753 C419 685 364 630 296 630 C228 630 173 685 173 753 C173 821 228 875 296 875 L296 875 Z M296 701 C324 701 347 725 347 753 C347 781 324 804 296 804 C267 804 244 781 244 753 C244 725 267 701 296 701 L296 701 Z " />
<glyph glyph-name="uring" unicode="&#x16f;" horiz-adv-x="522" d="M261 -11 C446 -11 461 139 461 191 L461 424 L363 424 L363 187 C363 156 352 81 261 81 C170 81 159 156 159 187 L159 424 L61 424 L61 191 C61 139 76 -11 261 -11 L261 -11 Z M261 726 C193 726 138 672 138 604 C138 536 193 481 261 481 C329 481 384 536 384 604 C384 672 329 726 261 726 L261 726 Z M261 552 C232 552 209 576 209 604 C209 632 232 655 261 655 C289 655 312 632 312 604 C312 576 289 552 261 552 L261 552 Z " />
<glyph glyph-name="Uhungarumlaut" unicode="&#x170;" horiz-adv-x="592" d="M296 -11 C296 -11 532 -11 532 224 L532 579 L435 579 L435 224 C435 202 429 81 296 81 C163 81 157 202 157 224 L157 579 L60 579 L60 224 C60 -11 296 -11 296 -11 L296 -11 Z M180 630 L215 749 L320 749 L270 630 L180 630 Z M326 630 L361 749 L466 749 L416 630 L326 630 Z " />
<glyph glyph-name="uhungarumlaut" unicode="&#x171;" horiz-adv-x="522" d="M261 -11 C446 -11 461 139 461 191 L461 424 L363 424 L363 187 C363 156 352 81 261 81 C170 81 159 156 159 187 L159 424 L61 424 L61 191 C61 139 76 -11 261 -11 L261 -11 Z M233 481 L283 600 L178 600 L143 481 L233 481 Z M379 481 L429 600 L324 600 L289 481 L379 481 Z " />
<glyph glyph-name="Uogonek" unicode="&#x172;" horiz-adv-x="592" d="M435 579 L435 224 C435 202 429 81 296 81 C163 81 157 202 157 224 L157 579 L60 579 L60 224 C60 47 194 4 260 -7 L260 -42 C260 -42 193 -57 193 -117 C193 -185 270 -195 291 -195 C305 -195 332 -193 349 -191 L349 -136 C340 -139 331 -140 321 -140 C292 -140 275 -130 275 -110 C275 -85 305 -80 305 -80 L330 -76 L330 -7 C396 3 532 46 532 224 L532 579 L435 579 Z " />
<glyph glyph-name="uogonek" unicode="&#x173;" horiz-adv-x="522" d="M461 191 L461 424 L363 424 L363 187 C363 156 352 81 261 81 C170 81 159 156 159 187 L159 424 L61 424 L61 191 C61 142 74 8 226 -9 L226 -42 C226 -42 159 -57 159 -117 C159 -185 236 -195 257 -195 C271 -195 298 -193 315 -191 L315 -136 C306 -139 297 -140 287 -140 C258 -140 241 -130 241 -110 C241 -85 271 -80 271 -80 L296 -76 L296 -9 C448 8 461 142 461 191 L461 191 Z " />
<glyph glyph-name="Ydieresis" unicode="&#x178;" horiz-adv-x="564" d="M282 308 L136 579 L24 579 L233 195 L233 0 L331 0 L331 195 L540 579 L428 579 L282 308 Z M135 690 C135 656 162 630 195 630 C229 630 256 656 256 690 C256 723 229 750 195 750 C162 750 135 723 135 690 L135 690 Z M312 690 C312 656 339 630 373 630 C406 630 433 656 433 690 C433 723 406 750 373 750 C339 750 312 723 312 690 L312 690 Z " />
<glyph glyph-name="Zacute" unicode="&#x179;" horiz-adv-x="518" d="M162 92 L467 485 L467 579 L51 579 L51 487 L344 487 L41 95 L41 0 L477 0 L477 92 L162 92 Z M300 630 L383 756 L271 756 L203 630 L300 630 Z " />
<glyph glyph-name="zacute" unicode="&#x17a;" horiz-adv-x="448" d="M173 92 L398 329 L398 424 L50 424 L50 332 L274 332 L50 97 L50 0 L398 0 L398 92 L173 92 Z M272 497 L355 623 L243 623 L175 497 L272 497 Z " />
<glyph glyph-name="Zdotaccent" unicode="&#x17b;" horiz-adv-x="518" d="M162 92 L467 485 L467 579 L51 579 L51 487 L344 487 L41 95 L41 0 L477 0 L477 92 L162 92 Z M194 690 C194 656 221 630 255 630 C288 630 315 656 315 690 C315 723 288 750 255 750 C221 750 194 723 194 690 L194 690 Z " />
<glyph glyph-name="zdotaccent" unicode="&#x17c;" horiz-adv-x="448" d="M173 92 L398 329 L398 424 L50 424 L50 332 L274 332 L50 97 L50 0 L398 0 L398 92 L173 92 Z M163 541 C163 507 190 481 224 481 C257 481 284 507 284 541 C284 574 257 601 224 601 C190 601 163 574 163 541 L163 541 Z " />
<glyph glyph-name="Zcaron" unicode="&#x17d;" horiz-adv-x="518" d="M162 92 L467 485 L467 579 L51 579 L51 487 L344 487 L41 95 L41 0 L477 0 L477 92 L162 92 Z M328 630 L411 798 L309 798 L259 699 L209 798 L107 798 L190 630 L328 630 Z " />
<glyph glyph-name="zcaron" unicode="&#x17e;" horiz-adv-x="448" d="M173 92 L398 329 L398 424 L50 424 L50 332 L274 332 L50 97 L50 0 L398 0 L398 92 L173 92 Z M292 481 L375 649 L273 649 L223 550 L173 649 L71 649 L154 481 L292 481 Z " />
<glyph glyph-name="florin" unicode="&#x192;" horiz-adv-x="376" d="M23 332 L105 332 L20 -183 L119 -183 L205 332 L319 332 C330 389 333 400 337 424 L219 424 L223 445 C232 493 274 525 323 525 C326 525 332 525 349 523 C354 556 360 581 365 614 C348 617 325 618 301 618 C279 618 151 611 125 451 L121 424 L35 424 L23 332 Z " />
<glyph glyph-name="uni0218" unicode="&#x218;" horiz-adv-x="527" d="M265 -11 C431 -11 481 92 481 148 C481 359 151 295 151 426 C151 465 199 497 247 497 C296 497 353 481 388 441 L459 494 C439 524 381 589 254 589 C92 589 54 487 54 433 C54 220 383 263 383 155 C383 140 364 81 270 81 C192 81 135 123 112 154 L40 97 C68 56 132 -11 265 -11 L265 -11 Z M266 -170 L324 -53 L226 -53 L183 -170 L266 -170 Z " />
<glyph glyph-name="uni0219" unicode="&#x219;" horiz-adv-x="417" d="M31 73 C54 37 109 -11 208 -11 C325 -11 386 60 386 114 C386 279 141 221 141 305 C141 338 181 346 209 346 C257 346 298 313 298 313 L358 371 C336 397 290 435 210 435 C97 435 43 365 43 306 C43 139 288 188 288 116 C288 77 215 77 199 77 C199 77 129 78 101 118 L31 73 Z M213 -170 L271 -53 L173 -53 L130 -170 L213 -170 Z " />
<glyph glyph-name="uni021A" unicode="&#x21a;" horiz-adv-x="554" d="M228 487 L228 0 L326 0 L326 487 L513 487 L513 579 L41 579 L41 487 L228 487 Z M268 -170 L326 -53 L228 -53 L185 -170 L268 -170 Z " />
<glyph glyph-name="uni021B" unicode="&#x21b;" horiz-adv-x="381" d="M30 332 L121 332 L121 163 C121 0 241 0 263 0 C305 0 334 3 334 3 L334 88 C321 87 296 87 296 87 C220 87 219 143 219 161 L219 332 L335 332 L335 424 L219 424 L219 598 C183 589 159 580 121 571 L121 424 L30 424 L30 332 Z M235 -170 L293 -53 L195 -53 L152 -170 L235 -170 Z " />
<glyph glyph-name="circumflex" unicode="&#x2c6;" horiz-adv-x="436" d="M149 579 L66 411 L168 411 L218 510 L268 411 L370 411 L287 579 L149 579 Z " />
<glyph glyph-name="caron" unicode="&#x2c7;" horiz-adv-x="436" d="M287 411 L370 579 L268 579 L218 480 L168 579 L66 579 L149 411 L287 411 Z " />
<glyph glyph-name="breve" unicode="&#x2d8;" horiz-adv-x="502" d="M251 430 C359 430 428 483 436 579 L343 579 C334 523 290 510 251 510 C212 510 168 523 159 579 L66 579 C74 483 143 430 251 430 L251 430 Z " />
<glyph glyph-name="dotaccent" unicode="&#x2d9;" horiz-adv-x="248" d="M66 520 C66 489 92 463 123 463 C155 463 182 489 182 520 C182 552 155 579 123 579 C92 579 66 552 66 520 L66 520 Z " />
<glyph glyph-name="ring" unicode="&#x2da;" horiz-adv-x="378" d="M189 579 C121 579 66 525 66 457 C66 389 121 334 189 334 C257 334 312 389 312 457 C312 525 257 579 189 579 L189 579 Z M189 405 C160 405 137 429 137 457 C137 485 160 508 189 508 C217 508 240 485 240 457 C240 429 217 405 189 405 L189 405 Z " />
<glyph glyph-name="ogonek" unicode="&#x2db;" horiz-adv-x="288" d="M133 6 L133 -42 C133 -42 66 -57 66 -117 C66 -185 143 -195 164 -195 C178 -195 205 -193 222 -191 L222 -136 C213 -139 204 -140 194 -140 C165 -140 148 -130 148 -110 C148 -85 178 -80 178 -80 L203 -76 L203 6 L133 6 Z " />
<glyph glyph-name="tilde" unicode="&#x2dc;" horiz-adv-x="492" d="M330 449 C350 449 423 453 426 579 L349 579 C349 543 338 533 310 533 C271 533 230 579 162 579 C142 579 69 575 66 449 L143 449 C143 485 154 495 182 495 C223 495 280 451 330 449 L330 449 Z " />
<glyph glyph-name="hungarumlaut" unicode="&#x2dd;" horiz-adv-x="418" d="M156 460 L206 579 L101 579 L66 460 L156 460 Z M302 460 L352 579 L247 579 L212 460 L302 460 Z " />
<glyph glyph-name="uni03A9" unicode="&#x3a9;" horiz-adv-x="688" d="M344 589 C175 589 101 454 101 289 C101 228 116 162 148 92 L66 92 L66 0 L268 0 L268 99 C215 137 199 215 199 289 C199 389 225 497 344 497 C463 497 489 389 489 289 C489 215 473 137 420 99 L420 0 L622 0 L622 92 L540 92 C572 162 587 228 587 289 C587 454 513 589 344 589 L344 589 Z " />
<glyph glyph-name="pi" unicode="&#x3c0;" horiz-adv-x="799" d="M733 332 L733 424 L66 424 L66 332 L213 332 L213 0 L311 0 L311 332 L488 332 L488 0 L586 0 L586 332 L733 332 Z " />
<glyph glyph-name="ZWSP" unicode="&#x200b;" d="" />
<glyph glyph-name="endash" unicode="&#x2013;" horiz-adv-x="411" d="M66 152 L345 152 L345 244 L66 244 L66 152 Z " />
<glyph glyph-name="emdash" unicode="&#x2014;" horiz-adv-x="490" d="M66 152 L424 152 L424 244 L66 244 L66 152 Z " />
<glyph glyph-name="quoteleft" unicode="&#x2018;" horiz-adv-x="287" d="M131 589 C108 533 89 489 66 432 L171 432 C187 486 204 537 221 589 L131 589 Z " />
<glyph glyph-name="quoteright" unicode="&#x2019;" horiz-adv-x="287" d="M156 432 C179 488 198 532 221 589 L116 589 C100 535 83 484 66 432 L156 432 Z " />
<glyph glyph-name="quotesinglbase" unicode="&#x201a;" horiz-adv-x="287" d="M156 -83 C179 -27 198 17 221 74 L116 74 C100 20 83 -31 66 -83 L156 -83 Z " />
<glyph glyph-name="quotedblleft" unicode="&#x201c;" horiz-adv-x="460" d="M131 589 C108 533 89 489 66 432 L171 432 C187 486 204 537 221 589 L131 589 Z M304 589 C281 533 262 489 239 432 L344 432 C360 486 377 537 394 589 L304 589 Z " />
<glyph glyph-name="quotedblright" unicode="&#x201d;" horiz-adv-x="460" d="M329 432 C352 488 371 532 394 589 L289 589 C273 535 256 484 239 432 L329 432 Z M156 432 C179 488 198 532 221 589 L116 589 C100 535 83 484 66 432 L156 432 Z " />
<glyph glyph-name="quotedblbase" unicode="&#x201e;" horiz-adv-x="460" d="M329 -83 C352 -27 371 17 394 74 L289 74 C273 20 256 -31 239 -83 L329 -83 Z M156 -83 C179 -27 198 17 221 74 L116 74 C100 20 83 -31 66 -83 L156 -83 Z " />
<glyph glyph-name="dagger" unicode="&#x2020;" horiz-adv-x="492" d="M197 340 L197 -147 L295 -147 L295 340 L426 340 L426 432 L295 432 L295 579 L197 579 L197 432 L66 432 L66 340 L197 340 Z " />
<glyph glyph-name="daggerdbl" unicode="&#x2021;" horiz-adv-x="492" d="M66 92 L66 0 L197 0 L197 -147 L295 -147 L295 0 L426 0 L426 92 L295 92 L295 340 L426 340 L426 432 L295 432 L295 579 L197 579 L197 432 L66 432 L66 340 L197 340 L197 92 L66 92 Z " />
<glyph glyph-name="bullet" unicode="&#x2022;" horiz-adv-x="243" d="M66 206 C66 176 91 151 121 151 C151 151 177 176 177 206 C177 236 151 262 121 262 C91 262 66 236 66 206 L66 206 Z " />
<glyph glyph-name="ellipsis" unicode="&#x2026;" horiz-adv-x="842" d="M66 46 C66 15 92 -11 123 -11 C155 -11 182 15 182 46 C182 78 155 105 123 105 C92 105 66 78 66 46 L66 46 Z M363 46 C363 15 389 -11 420 -11 C452 -11 479 15 479 46 C479 78 452 105 420 105 C389 105 363 78 363 46 L363 46 Z M660 46 C660 15 686 -11 717 -11 C749 -11 776 15 776 46 C776 78 749 105 717 105 C686 105 660 78 660 46 L660 46 Z " />
<glyph glyph-name="perthousand" unicode="&#x2030;" horiz-adv-x="1029" d="M167 0 L266 0 L590 579 L491 579 L167 0 Z M189 579 C121 579 66 525 66 457 C66 389 121 334 189 334 C257 334 312 389 312 457 C312 525 257 579 189 579 L189 579 Z M189 411 C164 411 143 431 143 457 C143 481 164 502 189 502 C214 502 235 481 235 457 C235 431 214 411 189 411 L189 411 Z M554 234 C486 234 431 180 431 112 C431 44 486 -11 554 -11 C622 -11 677 44 677 112 C677 180 622 234 554 234 L554 234 Z M554 66 C529 66 508 86 508 112 C508 136 529 157 554 157 C579 157 600 136 600 112 C600 86 579 66 554 66 L554 66 Z M840 234 C772 234 717 180 717 112 C717 44 772 -11 840 -11 C908 -11 963 44 963 112 C963 180 908 234 840 234 L840 234 Z M840 66 C815 66 794 86 794 112 C794 136 815 157 840 157 C865 157 886 136 886 112 C886 86 865 66 840 66 L840 66 Z " />
<glyph glyph-name="guilsinglleft" unicode="&#x2039;" horiz-adv-x="402" d="M66 162 L336 48 L336 142 L156 216 L336 291 L336 385 L66 273 L66 162 Z " />
<glyph glyph-name="guilsinglright" unicode="&#x203a;" horiz-adv-x="402" d="M336 273 L66 385 L66 291 L246 216 L66 142 L66 48 L336 162 L336 273 Z " />
<glyph glyph-name="fraction" unicode="&#x2044;" horiz-adv-x="581" d="M66 -147 L165 -147 L515 719 L416 719 L66 -147 Z " />
<glyph glyph-name="Euro" unicode="&#x20ac;" horiz-adv-x="789" d="M66 326 L122 326 C121 314 120 301 120 289 C120 276 121 262 123 250 L66 250 L66 173 L143 173 C189 64 298 -11 427 -11 C567 -11 685 79 723 203 L613 203 C581 130 510 81 427 81 C356 81 292 117 254 173 L342 173 L342 250 L222 250 C219 262 218 275 218 289 C218 301 219 314 221 326 L342 326 L342 403 L252 403 C289 460 355 497 427 497 C510 497 581 448 613 375 L723 375 C685 499 567 589 427 589 C297 589 188 512 143 403 L66 403 L66 326 Z " />
<glyph glyph-name="Numero" unicode="&#x2116;" horiz-adv-x="1205" d="M470 170 L160 579 L66 579 L66 0 L164 0 L164 409 L476 0 L568 0 L568 579 L470 579 L470 170 Z M907 579 C777 579 675 479 675 356 C675 233 777 133 907 133 C1037 133 1139 233 1139 356 C1139 479 1037 579 907 579 L907 579 Z M907 225 C833 225 773 280 773 356 C773 432 833 487 907 487 C981 487 1041 432 1041 356 C1041 280 981 225 907 225 L907 225 Z M768 0 L1047 0 L1047 92 L768 92 L768 0 Z " />
<glyph glyph-name="trademark" unicode="&#x2122;" horiz-adv-x="668" d="M134 511 L134 340 L199 340 L199 511 L265 511 L265 579 L66 579 L66 511 L134 511 Z M459 386 L537 467 L537 340 L602 340 L602 579 L540 579 C515 547 485 509 459 478 L378 579 L316 579 L316 340 L381 340 L381 467 L459 386 Z " />
<glyph glyph-name="Omega" unicode="&#x2126;" horiz-adv-x="688" d="M344 589 C175 589 101 454 101 289 C101 228 116 162 148 92 L66 92 L66 0 L268 0 L268 99 C215 137 199 215 199 289 C199 389 225 497 344 497 C463 497 489 389 489 289 C489 215 473 137 420 99 L420 0 L622 0 L622 92 L540 92 C572 162 587 228 587 289 C587 454 513 589 344 589 L344 589 Z " />
<glyph glyph-name="partialdiff" unicode="&#x2202;" horiz-adv-x="589" d="M425 318 C367 364 304 364 267 364 C152 364 66 295 66 176 C66 57 145 -11 260 -11 C307 -11 373 -11 425 33 L425 0 L523 0 L523 388 C523 508 426 589 301 589 C226 589 143 554 143 554 L175 473 C227 497 268 497 298 497 C357 497 425 458 425 377 L425 318 Z M293 81 C221 81 164 100 164 176 C164 256 221 272 293 272 C369 272 425 256 425 176 C425 100 369 81 293 81 L293 81 Z " />
<glyph glyph-name="Delta" unicode="&#x2206;" horiz-adv-x="714" d="M412 579 L302 579 L66 0 L648 0 L412 579 Z M357 450 L505 92 L209 92 L357 450 Z " />
<glyph glyph-name="product" unicode="&#x220f;" horiz-adv-x="799" d="M733 487 L733 579 L66 579 L66 487 L213 487 L213 0 L311 0 L311 487 L488 487 L488 0 L586 0 L586 487 L733 487 Z " />
<glyph glyph-name="summation" unicode="&#x2211;" horiz-adv-x="511" d="M265 289 L175 487 L445 487 L445 579 L66 579 L66 487 C95 423 128 353 156 289 C128 225 95 156 66 92 L66 0 L445 0 L445 92 L175 92 L265 289 Z " />
<glyph glyph-name="minus" unicode="&#x2212;" horiz-adv-x="411" d="M66 152 L345 152 L345 244 L66 244 L66 152 Z " />
<glyph glyph-name="radical" unicode="&#x221a;" horiz-adv-x="726" d="M660 579 L434 579 L256 109 L173 327 L66 327 L197 0 L315 0 L506 489 L660 489 L660 579 Z " />
<glyph glyph-name="infinity" unicode="&#x221e;" horiz-adv-x="896" d="M419 243 C373 180 317 163 265 163 C221 163 164 179 164 242 C164 305 221 321 265 321 C317 321 373 304 419 243 L419 243 Z M477 243 C523 304 579 321 631 321 C675 321 732 305 732 242 C732 179 675 163 631 163 C579 163 523 180 477 243 L477 243 Z M448 323 C390 398 315 413 262 413 C137 413 66 350 66 241 C66 134 137 71 262 71 C315 71 390 86 448 161 C506 86 581 71 634 71 C759 71 830 134 830 241 C830 350 759 413 634 413 C581 413 506 398 448 323 L448 323 Z " />
<glyph glyph-name="integral" unicode="&#x222b;" horiz-adv-x="458" d="M278 425 C278 425 282 497 356 497 L392 494 L392 586 C375 588 346 589 322 589 C300 589 180 589 180 426 L180 -11 C180 -11 176 -83 102 -83 L66 -80 L66 -172 C83 -174 112 -175 136 -175 C158 -175 278 -175 278 -12 L278 425 Z " />
<glyph glyph-name="approxequal" unicode="&#x2248;" horiz-adv-x="492" d="M330 45 C350 45 423 49 426 175 L349 175 C349 139 338 129 310 129 C271 129 230 175 162 175 C142 175 69 171 66 45 L143 45 C143 81 154 91 182 91 C223 91 280 47 330 45 L330 45 Z M330 204 C350 204 423 208 426 334 L349 334 C349 298 338 288 310 288 C271 288 230 334 162 334 C142 334 69 330 66 204 L143 204 C143 240 154 250 182 250 C223 250 280 206 330 204 L330 204 Z " />
<glyph glyph-name="notequal" unicode="&#x2260;" horiz-adv-x="411" d="M66 241 L172 241 L145 154 L66 154 L66 62 L117 62 L99 0 L181 0 L200 62 L345 62 L345 154 L225 154 L252 241 L345 241 L345 333 L278 333 L297 396 L217 396 L197 333 L66 333 L66 241 Z " />
<glyph glyph-name="lessequal" unicode="&#x2264;" horiz-adv-x="402" d="M66 231 L336 117 L336 211 L156 285 L336 360 L336 454 L66 342 L66 231 Z M66 0 L336 0 L336 92 L66 92 L66 0 Z " />
<glyph glyph-name="greaterequal" unicode="&#x2265;" horiz-adv-x="402" d="M336 342 L66 454 L66 360 L246 285 L66 211 L66 117 L336 231 L336 342 Z M336 92 L66 92 L66 0 L336 0 L336 92 Z " />
<glyph glyph-name="lozenge" unicode="&#x25ca;" horiz-adv-x="614" d="M363 579 L251 579 L66 288 L248 0 L366 0 L548 288 L363 579 Z M307 91 L183 288 L307 483 L431 288 L307 91 Z " />
<glyph glyph-name="uni25CC" unicode="&#x25cc;" horiz-adv-x="199" d="" />
<glyph glyph-name="fi" unicode="&#xfb01;" horiz-adv-x="611" d="M30 332 L121 332 L121 0 L219 0 L219 332 L335 332 L335 424 L219 424 L219 450 C219 450 219 524 305 525 C305 525 311 525 334 523 L334 612 C308 616 286 618 263 618 C241 618 121 612 121 450 L121 424 L30 424 L30 332 Z M447 0 L545 0 L545 424 L447 424 L447 0 Z M439 520 C439 489 465 463 496 463 C528 463 555 489 555 520 C555 552 528 579 496 579 C465 579 439 552 439 520 L439 520 Z " />
<glyph glyph-name="fl" unicode="&#xfb02;" horiz-adv-x="612" d="M30 332 L121 332 L121 0 L219 0 L219 332 L335 332 L335 424 L219 424 L219 450 C219 450 219 524 305 525 C305 525 311 525 334 523 L334 612 C308 616 286 618 263 618 C241 618 121 612 121 450 L121 424 L30 424 L30 332 Z M448 0 L546 0 L546 598 L448 598 L448 0 Z " />
</font>
</svg>
